<?xml version="1.0" encoding="UTF-8"?>
<svg id="_レイヤー_2" data-name="レイヤー 2" xmlns="http://www.w3.org/2000/svg" viewBox="0 0 576.68 582.69">
  <defs>
    <style>
      .cls-1 {
        fill: #fff;
      }
    </style>
  </defs>
  <g id="_レイヤー_1-2" data-name="レイヤー 1">
    <g>
      <g>
        <path class="cls-1" d="m235.98,353.49v5.51c0,.78-.74,1.42-1.63,1.42s-1.63-.65-1.63-1.42v-12.73c0-.78.72-1.42,1.63-1.42s1.63.65,1.63,1.42v6.25l10.25-6.88c.2-.13.48-.09.61.06.15.17.11.42-.07.53l-10.79,7.26Zm10.86,6.38c.11.17.04.4-.17.51-.22.09-.48.02-.59-.15l-4.96-7.9c-.11-.19-.04-.42.17-.51.22-.11.48-.04.59.15l4.96,7.9Z"/>
        <path class="cls-1" d="m274.95,351.42v7.22h10.49c.24,0,.44.15.44.38,0,.21-.2.38-.44.38h-10.55c-.2.59-.83,1.04-1.57,1.04-.91,0-1.63-.65-1.63-1.42v-12.73c0-.8.72-1.42,1.63-1.42.74,0,1.37.44,1.57,1.04h10.55c.24,0,.44.17.44.38s-.2.38-.44.38h-10.49v3.99h10.49c.24,0,.44.17.44.38s-.2.38-.44.38h-10.49Z"/>
        <path class="cls-1" d="m324.89,346.27v13.77c0,.21-.2.38-.44.38s-.44-.17-.44-.38v-13.39h-10.05v12.35c0,.78-.74,1.42-1.63,1.42s-1.63-.65-1.63-1.42v-12.73c0-.78.72-1.42,1.63-1.42.74,0,1.37.46,1.57,1.04h10.55c.24,0,.44.17.44.38Z"/>
        <path class="cls-1" d="m352.98,353.49v5.51c0,.78-.74,1.42-1.63,1.42s-1.63-.65-1.63-1.42v-12.73c0-.78.72-1.42,1.63-1.42s1.63.65,1.63,1.42v6.25l10.25-6.88c.2-.13.48-.09.61.06.15.17.11.42-.06.53l-10.79,7.26Zm10.86,6.38c.11.17.04.4-.17.51-.22.09-.48.02-.59-.15l-4.96-7.9c-.11-.19-.04-.42.17-.51.22-.11.48-.04.59.15l4.96,7.9Z"/>
        <path class="cls-1" d="m402.87,346.27v12.73c0,.21-.2.38-.44.38h-10.55c-.17.61-.8,1.04-1.57,1.04-.89,0-1.63-.65-1.63-1.42v-12.73c0-.78.74-1.42,1.63-1.42.76,0,1.39.46,1.57,1.04h10.55c.24,0,.44.17.44.38Zm-.87.38h-10.05v11.97h10.05v-11.97Z"/>
        <path class="cls-1" d="m441.88,348.76v7.77c0,.11-.04.21-.13.28l-2.83,2.47c-.09.06-.2.11-.3.11h-7.72c-.2.59-.83,1.04-1.57,1.04-.91,0-1.63-.65-1.63-1.42v-12.73c0-.8.72-1.42,1.63-1.42.74,0,1.37.44,1.57,1.04h7.72c.11,0,.22.04.3.11l2.83,2.47c.09.06.13.17.13.27Zm-.87.15c-.24-.19-2.35-2.05-2.59-2.24h-7.46v11.97h7.46c.22-.21,2.35-2.07,2.59-2.26v-7.47Z"/>
        <path class="cls-1" d="m480.89,346.27v12.73c0,.21-.2.38-.44.38h-10.55c-.17.61-.81,1.04-1.57,1.04-.89,0-1.63-.65-1.63-1.42v-12.73c0-.78.74-1.42,1.63-1.42.76,0,1.39.46,1.57,1.04h10.55c.24,0,.44.17.44.38Zm-.87.38h-10.05v11.97h10.05v-11.97Z"/>
      </g>
      <g>
        <g>
          <ellipse class="cls-1" cx="146.41" cy="299.8" rx="6.63" ry="6.17"/>
          <g>
            <path class="cls-1" d="m175.25,311.16c2.66-2.48.62-4.96.62-4.96,0,0,1.75.39,4.15-.9,3.15-1.68,4.05-5.52,4.05-5.52,0,0-.9-3.83-4.05-5.52-2.4-1.28-4.15-.9-4.15-.9,0,0,2.05-2.48-.61-4.96-2.66-2.48-18.45,8.2-19.68,9.15-1.23.95,10.1-4.27,12.89-1.32,1.84,1.94,1.74,3.54,1.74,3.54,0,0,.1,1.6-1.74,3.54-2.79,2.95-14.12-2.27-12.89-1.32,1.23.95,17.01,11.63,19.68,9.15Z"/>
            <path class="cls-1" d="m117.56,288.43c-2.66,2.48-.61,4.96-.61,4.96,0,0-1.75-.39-4.15.9-3.15,1.68-4.05,5.52-4.05,5.52,0,0,.9,3.83,4.05,5.52,2.4,1.28,4.15.9,4.15.9,0,0-2.05,2.48.61,4.96,2.66,2.48,18.45-8.2,19.68-9.15s-10.1,4.27-12.89,1.32c-1.84-1.94-1.74-3.54-1.74-3.54,0,0-.1-1.6,1.74-3.54,2.79-2.95,14.12,2.27,12.89,1.32-1.23-.95-17.01-11.63-19.68-9.15Z"/>
          </g>
          <g>
            <path class="cls-1" d="m158.63,272.98c-2.66-2.48-5.33-.57-5.33-.57,0,0,.42-1.62-.96-3.86-1.81-2.93-5.94-3.77-5.94-3.77,0,0-4.13.84-5.94,3.77-1.38,2.23-.96,3.86-.96,3.86,0,0-2.66-1.91-5.33.57s8.82,17.15,9.84,18.3c1.02,1.14-4.59-9.39-1.42-11.98,2.09-1.71,3.81-1.62,3.81-1.62,0,0,1.72-.09,3.81,1.62,3.17,2.6-2.45,13.13-1.42,11.98,1.02-1.14,12.51-15.82,9.84-18.3Z"/>
            <path class="cls-1" d="m134.18,326.61c2.66,2.48,5.33.57,5.33.57,0,0-.42,1.62.96,3.86,1.81,2.93,5.94,3.77,5.94,3.77,0,0,4.12-.84,5.94-3.77,1.38-2.23.96-3.86.96-3.86,0,0,2.66,1.91,5.33-.57s-8.81-17.15-9.84-18.3c-1.03-1.14,4.59,9.39,1.42,11.98-2.09,1.71-3.81,1.62-3.81,1.62,0,0-1.72.09-3.81-1.62-3.17-2.6,2.45-13.13,1.42-11.98-1.02,1.14-12.5,15.82-9.84,18.3Z"/>
          </g>
        </g>
        <path class="cls-1" d="m146.41,356l-52.36-28.1v-56.2l52.36-28.1,52.36,28.1v56.2l-52.36,28.1Zm-49-29.9l49,26.3,49-26.3v-52.6l-49-26.3-49,26.3v52.6Z"/>
        <path class="cls-1" d="m146.41,346.33l-43.35-23.27v-46.54l.25-.13,43.1-23.14,43.35,23.27v46.54l-.25.13-43.1,23.14Zm-42.36-23.8l42.36,22.74,42.36-22.74v-45.48l-42.36-22.74-42.36,22.74v45.48Z"/>
      </g>
      <g>
        <path class="cls-1" d="m227.86,256.58h-11.84c8.93-11,17.67-11,26.6,0h-11.37v73.5h-3.38v-73.5Zm32.62,62.98v-33.56h-21.43c7.05-6.49,14.19-7.33,21.43-2.35v-23.22h-21.43c8.18-7.43,16.26-7.43,24.44,0v48.5c6.2-3.85,12.5-5.83,18.61-6.11v-4.42h-15.7c5.26-4.32,10.43-6.67,15.7-6.96v-4.32c-4.7-.28-9.49-2.73-14.1-7.05h14.1v-6.2h-16.83c5.64-3.95,11.28-6.2,16.83-6.77v-4.04h-14.1c4.61-4.32,9.4-6.77,14.1-6.96v-6.67h2.73v6.67c4.61.38,9.21,2.73,13.82,6.96v7.05c2.07,1.03,4.32,2.16,6.39,3.76h-6.39v6.2c-4.61,4.23-9.21,6.58-13.82,7.05v4.32c5.45.19,10.81,2.63,16.17,6.96h-16.17v4.32c6.67.28,13.16,2.63,19.65,7.05h-19.65v9.68c7.33.85,14.48,2.54,21.71,4.89h-43.05v5.73h-3.01v-5.73h-21.43c7.05-2.26,14.19-3.95,21.43-4.79Zm21.62-.38v-9.4h-18.61v9.4c6.11-.47,12.41-.47,18.61,0Zm13.35-50.47v-5.64h-10.62v3.85c3.57-.09,7.14.56,10.62,1.79Zm0,11.37v-6.2h-10.62v6.2h10.62Z"/>
        <path class="cls-1" d="m321.2,258.27c12.78-5.83,25.66-8.55,38.35-8.46v-7.8h4.04v7.99c11,.56,22.09,3.29,33.18,8.27h-71.53v24.25c11.47-4.89,23.03-7.33,34.59-7.52v-3.67h-22.75c7.61-5.26,15.13-8.08,22.75-8.37v-4.04h4.04v4.04c7.24.47,14.57,3.29,21.99,8.37v7.05c4.61,1.32,9.4,2.91,14.19,5.08h-14.19v12.88h-21.99v35.25h-4.04v-35.25h-22.75c7.61-5.17,15.13-8.08,22.75-8.37v-4.51h-34.59v44.08h-4.04v-69.27Zm35.81,63.82h-25.66c8.46-11.09,17.11-11.09,25.66,0Zm-12.88-20.68c4.79,0,8.18,2.63,10.25,8.08h-20.4c1.97-5.45,5.36-8.08,10.15-8.08Zm37.69-24.06v-6.02h-17.95v3.76c6.02.09,11.94.85,17.95,2.26Zm0,16.45v-10.34h-17.95v4.51c6.02.47,11.94,2.44,17.95,5.83Zm10.62,28.29h-25.75c8.55-11.09,17.2-11.09,25.75,0Zm-12.88-20.68c4.79,0,8.18,2.63,10.25,8.08h-20.4c1.97-5.45,5.36-8.08,10.15-8.08Z"/>
        <path class="cls-1" d="m449.98,320.87v-12.5h-30.74c10.15-4.89,20.49-7.43,30.74-7.61v-7.05c-8.37-.28-16.54-2.91-24.63-7.9v-4.51c17.29-10.71,35.15-10.71,53.39,0v4.51c-8.37,4.89-16.73,7.52-25,7.9v7.05c9.96.38,19.83,2.91,29.8,7.61h-29.8v12.5c13.63.19,27.16,2.63,40.89,7.52h-85.63c13.63-4.89,27.35-7.33,40.98-7.52Zm39.85-52.92h-75.67v16.45h-3.76v-16.45c7.8-2.91,15.6-4.89,23.41-6.11v-13.25h3.85v12.69c4.14-.56,8.18-.85,12.31-.85v-14.76h3.76v14.76c4.7.09,9.3.38,14,1.03v-12.88h3.85v13.54c7.33,1.22,14.66,3.1,22,5.83v16.45h-3.76v-16.45Zm-14.85,17.86v-4.51h-45.96v4.51h45.96Z"/>
      </g>
      <g>
        <path class="cls-1" d="m576.4,281.86c-.07-2.05-.14-4.1-.19-5.64-.06-1.54-.18-2.56-.18-2.56l.55.79c-.8-3.7-1.13-10.95-1.13-13.5.29.37.64.08.91,2.97-.91-9.91-1.92-11.14-2.68-11.95-.41-.4-.83-.7-1.3-1.91-.45-1.21-.98-3.32-1.87-7.31.21,1,.42,2.25.58,4,.69,3.93.35,7.49-.16,6.05,1.91,7.94.95,8.22,2.77,9.1,1.26,5.16.49,10.81-.67,4.94,0,0,.56,3.73,1.11,7.47.5,3.74.8,7.51.8,7.51,0,0,.01-2.26.02-4.52.02-1.13,0-2.26-.05-3.11-.04-.84-.07-1.41-.07-1.41,1.8,2.38,0,14.43,1.84,17.29,0,0-.14-4.11-.28-8.21Z"/>
        <path class="cls-1" d="m568.15,223.23s-.13-.72-.34-1.79c-.19-1.07-.47-2.49-.83-3.9-.68-2.82-1.36-5.64-1.36-5.64-.65.04-3.44-7.91-2.41-2.27.4,1.05,1.18,3.11,1.61,4.84-.83-.44-2.04-4.07-3.1-7.14-1.14-3.05-2.2-5.49-2.3-3.68,3.15,8.51,3.01,10,5.68,15.08,1,4.05,1.61,7.62,2.17,10.61.57,3,.87,5.47.93,7.44.64,2.39,1.52,2.58,2.24,5.65-.14-.69-.27-1.31-.43-2.1l1.97-.7c-.92-2.52-1.06-5.03-1.76-7.89,0,0,.37.79.81,2,.45,1.21,1.04,2.83,1.64,4.45,1.19,3.26,2.38,6.52,2.38,6.52.56-2.32-.03-6.78-.78-11.32-.88-4.53-2.09-9.1-2.29-11.83-.18,6.92-2.02-4.95-.49,8.01l-3.35-6.34Z"/>
        <path class="cls-1" d="m80.99,453.65c1.44,1.22,2.4,2.02,2.4,2.02-4.26-5.81-4.62-3.45-9.69-10.55,1.62,2.22,2.48,2.59,2.91,2.76,0,0-1.12-1.57-2.8-3.92-.84-1.18-1.81-2.55-2.86-4.02-.98-1.52-2.02-3.14-3.06-4.77-2.08-3.23-4.21-6.45-5.59-9-1.44-2.51-2.41-4.17-2.41-4.17,0,1.09,3.87,9.17.63,4.17.7,2.68,5.56,9.24,6.81,9.81l-1.91-1.44c4.66,5.47,5.79,10.62,2.62,7.12l.35.5s3.7,3.46,7.41,6.92c1.8,1.75,3.75,3.36,5.2,4.57Z"/>
        <path class="cls-1" d="m560.66,339.49c.11-1.45.18-2.84.14-4.12-.53,4.01-.42,4.53-.14,4.12Z"/>
        <path class="cls-1" d="m91.88,462.52c-1.84-1.65-3.66-2.92-4.93-3.85,0,0,1.18,1.02,2.45,1.95,1.24.95,2.48,1.9,2.48,1.9Z"/>
        <path class="cls-1" d="m46.14,433.53c-.06.01-.15,0-.14.18l2.03,2.23s-.03-.05-.04-.07c-.68-.85-1.28-1.63-1.85-2.34Z"/>
        <path class="cls-1" d="m200.06,534.71c.61.22,1.13.4,1.86.65-.67-.26-1.29-.46-1.86-.65Z"/>
        <path class="cls-1" d="m11.19,360.74c-1.27-2.88-2.54-5.77-2.54-5.77l-1.69-2.56s1.14,3.58,2.28,7.16c1.07,3.59,2.45,7.08,2.45,7.08-1.1-1.77,1.03,5.13-.48,2.28.4,1.07,2.09,6.15,1.97,4.66l-.87-2.92c3.81,7.07,2.92,2.4,8.29,14.23-.81-3.96-1.71-6.68-2.67-8.9-.86-2.25-1.79-4-2.74-5.94-.48-1.36-.88-2.5-1.28-3.66,0,0-.35-.7-.88-1.75-.54-1.05-1.23-2.47-1.84-3.91Z"/>
        <path class="cls-1" d="m472.28,507.37l.14-.82c-.42.71-2.59,2.72-.14.82Z"/>
        <path class="cls-1" d="m86.95,458.67l-3.57-3c.37.53.86,1.25,1.33,1.92.36-.05,1.15.33,2.24,1.08Z"/>
        <path class="cls-1" d="m68.38,442.16l-3.07-3.14c2.6,3.66,5.99,7.7,10.04,12.53l-6.97-9.39Z"/>
        <path class="cls-1" d="m92.91,467.24c4.96,4.53,4.29,1.69,11.16,8.92-3.21-2.32-5.31-1.75,1.39,5.22,4.63,3.9,8.96,7.33,13.41,10.17,2.2,1.44,4.3,2.89,6.47,4.16,2.19,1.23,4.34,2.43,6.49,3.65,8.58,4.76,17.33,8.66,27.17,13.49.04.71,3.84,3.13,8.52,5.94,4.74,2.69,10.45,5.59,14.16,7.51-3.44-.19-9.18-2.74-15.02-5.57,3.54,2.03,9.76,5.28,14.44,7.57l2.98-1.38c21.33,9.31-6.04-.53,3.54,4.3,6.02,2.51,8.6,2.23,12.44,3.51-8.76-3.02-7.88-3.5-7-4.03.89-.56,1.68-.97-6.82-4.58,1.57-.27,4.73.77,8.29,2.01,3.58,1.19,7.46,2.82,10.28,4.17,3.07,1.89,1.5,1.73-1.08,1.1-2.55-.69-6.13-1.78-7.19-1.34,7.04,2.45,5.89,1.8,9.18,1.96,5.46,2.02,11.29,3.6,16.61,4.69,2.65.59,5.12,1.28,7.34,1.93,2.24.61,4.19,1.35,5.76,2.3,8.28,1.6,7.94.49,12.82.55.62-.78-2.39-1.56-5.9-2.37-2.8-.76-5.89-1.61-7.69-2.44.26.18.42.34.23.41,0,0-1.73-.49-3.46-.98-1.74-.45-3.43-1.07-3.43-1.07,3.2,1.23,2.9,1.49,1.28,1.54-1.58-.06-4.43-.54-6.22-.97-2.58-.69-7.71-2.07-6.84-2.37,0,0,.98.25,1.98.41,1,.18,1.99.37,1.99.37-2.43-.92-5.22-1.55-8.06-2.23-2.82-.7-5.72-1.35-8.11-2.79-.13-.47,1.86.12,2.25-.04-6.12-1.12-11.71-3.14-20.32-6.25l5.52.58c-7.48-1.01-22.14-8.98-31.34-15.8.93.9,2.82,2.2,1.45,1.81-5.98-3.13-9.54-6.98-6.44-6.04-1.55-.6-3.66-1.73-5.93-3.34-2.25-1.63-4.77-3.59-7.36-5.57-2.6-1.97-5.07-4.23-7.53-6.06-2.47-1.83-4.76-3.47-6.72-4.61,0,0-2.31-1.26-5.77-3.16-3.5-1.88-7.89-4.77-12.49-7.54-4.39-2.97-8.87-5.99-12.13-8.37-3.22-2.45-5.37-4.08-5.37-4.08,1.21,1.05,2.46,2.22,3.66,3.49,1.39,3.91,2.92,5.4-2.63,1.23Z"/>
        <path class="cls-1" d="m234.67,538.68c-.31-.22-.77-.45-1.09-.6.26.2.65.39,1.09.6Z"/>
        <path class="cls-1" d="m134.98,502.26c.42.44.89.84,1.37,1.25-.21-.27-.62-.65-1.37-1.25Z"/>
        <path class="cls-1" d="m164.83,519.76c.6.32,1.21.63,1.83.95-.6-.36-1.27-.77-1.7-1.02-.09,0-.09.04-.13.07Z"/>
        <path class="cls-1" d="m86.23,463.68c-1.21-.87-1.98-1.62-3.12-2.56.64.62,1.39,1.46,2.19,2.19.79.67,1.24.94.93.37Z"/>
        <path class="cls-1" d="m84.76,458.62l.85.3c-.35-.51-.59-.87-.9-1.32-.31.03-.36.31.05,1.03Z"/>
        <path class="cls-1" d="m268.46,560.43l2.32-.08c-1.39-.09-1.99-.03-2.32.08Z"/>
        <path class="cls-1" d="m149.53,512.39c-3.39-2.46-9.09-5.44-13.18-8.89,1.46,1.84-7.55-2.64,3.57,4.28-.91-.53-.46-.03-1.36-.56,6.29,5.73,10.13,6.08,16.19,10.01,3.31,2.89-6.52-2.95-3.21-.51,1.97,1.14,4.46,2.64,7.16,4.14,2.68,1.52,5.46,3.23,8.06,4.63,5.28,2.66,9.58,4.56,9.84,3.33,5.98,2.72,6.63,3.45,8.22,4.71,2.63.51,6.1,1.8,9.97,3.17,3.83,1.43,7.94,3.25,11.89,4.59,7.78,2.99,14.57,4.83,14.96,3.23-1.83-.48-4.23-1.09-6.85-1.77-2.58-.78-5.4-1.57-8.15-2.12l.78-2.16c-7.75-2.53-1.55,1.47-12.36-2.73l3.13,1.35c-8.13-2.11-21.31-8.66-30.08-13.26,1.28-.03-4.83-3.68-3.28-4.07-2.97-1.57-5.96-3.1-8.61-4.42-2.6-1.39-4.92-2.47-6.69-2.95Z"/>
        <path class="cls-1" d="m95.69,474.1c.37.4.77.85,1.1,1.2-.29-.31-.75-.82-1.1-1.2Z"/>
        <path class="cls-1" d="m536.71,142.91c.28.6.61,1.3.87,1.85-.14-.44-.49-1.13-.87-1.85Z"/>
        <path class="cls-1" d="m43.97,152.39l2-3.35c-.82,1.28-1.45,2.36-2,3.35Z"/>
        <path class="cls-1" d="m92.56,78.66l3.89-4.36c-1.65,1.61-2.82,2.99-3.89,4.36Z"/>
        <path class="cls-1" d="m509.66,105.4l-.11-.15c-.24-.22-.42-.38-.67-.61l.78.76Z"/>
        <path class="cls-1" d="m255.25,6.17c-.18-.18-1.39-.17-3.22-.04.89.06,1.88.09,3.22.04Z"/>
        <path class="cls-1" d="m91.85,79.47c.12-.09.19-.14.28-.21.13-.19.28-.39.43-.59l-.72.81Z"/>
        <path class="cls-1" d="m22.15,185.1c-.25.82-.48,1.56-.75,2.44.4-1.13.6-1.84.75-2.44Z"/>
        <path class="cls-1" d="m29.57,182.08c-.28.86-.54,1.68-.7,2.33l.7-2.33Z"/>
        <path class="cls-1" d="m5.46,314.32l.7,5.27c-.23-2.6-.47-4.14-.7-5.27Z"/>
        <path class="cls-1" d="m23.37,194.6c0,.32-.02.64,0,.87.17-.71.17-1.08,0-.87Z"/>
        <path class="cls-1" d="m546.63,174.82c-.05-.1-.1-.21-.13-.28h-.27s.4.28.4.28Z"/>
        <path class="cls-1" d="m554.3,185.13c.6,1.36,1.22,2.77,1.82,4.17-.61-1.57-1.27-3.08-1.82-4.17Z"/>
        <path class="cls-1" d="m328.03,8.55c1.34.47,4.5,1.22,2.95,1.37,2.67-.09,2.64-1.14-2.95-1.37Z"/>
        <path class="cls-1" d="m524.16,158.96c.63.54,1.29,1.27,1.96,2.02-1.16-1.43-2.17-2.68-1.96-2.02Z"/>
        <path class="cls-1" d="m293.02,23.36c-.32-.13-.82-.23-1.5-.25.2.27.74.32,1.5.25Z"/>
        <path class="cls-1" d="m560.15,195.96c1.57.13,4.28,9.9,5.68,14.15-.55-3.23,1.38,1.28,1.63.17-.81-2.09-1.85-4.53-2.99-8.03.11-1.83,2.42,3.32,3.28,7.63-.71-5.42,3.03,6.27,1.52-1.27-5.27-15.52-9.99-26.21-16.79-35.66,1.03,2.07,2.1,4.21,3.16,6.34.94,2.2,1.88,4.41,2.81,6.57.9,2.17,1.75,4.3,2.51,6.34.67,2.09,1.25,4.07,1.71,5.92l-2.26-2.58c-.75-4.26-2.15-7.45-3.4-10.64-1.28-3.19-2.73-6.29-4.47-10.13,0,0,.45,1.1,1.11,2.73.71,1.63,1.5,3.85,2.27,6.09,1.57,4.44,3.13,8.9,3.13,8.9.94,4.35.83,5.15.22,4.05-.59-1.1-1.74-4.09-3.18-7.24.61,1.59,1.1,3.05,1.04,3.53.77.55,8.09,19.03,2.99,3.13Z"/>
        <path class="cls-1" d="m541.93,185.56l.08.29c.14.23.29.52.4.65l-.48-.95Z"/>
        <path class="cls-1" d="m31.85,311.23l.61,1.46c-.32-1.24-.5-1.6-.61-1.46Z"/>
        <path class="cls-1" d="m543.29,173.12h0c-.07-.13-.06-.1,0,0Z"/>
        <path class="cls-1" d="m31.68,273.83c-.03-.13-.07-.14-.1-.2.03.06.07.11.1.2Z"/>
        <path class="cls-1" d="m3.98,261.42c0,.91.1.48.2-.28-.07.07-.12.09-.2.28Z"/>
        <path class="cls-1" d="m98.6,107.06s-.57.27-1.36.79c-.16.34.19.18,1.36-.79Z"/>
        <path class="cls-1" d="m314.58,1.39c1.46.14,3.04.26,4.77.29-2-.17-3.5-.25-4.77-.29Z"/>
        <path class="cls-1" d="m32,275.57c-.11-.95-.22-1.45-.32-1.75.11.37.21.89.32,1.75Z"/>
        <path class="cls-1" d="m136.87,65.25c-.3.27-.58.53-.86.79l.59-.35.26-.44Z"/>
        <path class="cls-1" d="m145.55,60.05c.62.2,1.14.2,8.2-4.6-.5.46-.68.74-.94,1.05,2.87-1.96,7.14-4.42,10.79-6.6,3.74-2.02,6.82-3.83,7.18-4.79-1.04.56-4.39,2.04-7.3,3.2-2.88,1.2-5.27,2.17-4.56,1.28-2.04,1.37-4.73,2.74-7.21,3.96-2.47,1.22-4.6,2.48-5.66,3.26,7.17-3.69,1.34.53-2.93,3.83-4.36,2.31.16-1.44-3.55.64l-9.21,6.73,8.2-5.6-1.69,2.85c.27-.25.46-.42.75-.69,6.69-5.02,7.39-4.63,7.94-4.51Z"/>
        <path class="cls-1" d="m152.82,56.5c-.87.57-1.56,1.19-2.09,1.68,1.3-.87,1.75-1.3,2.09-1.68Z"/>
        <path class="cls-1" d="m216.49,30.73c.67-.24,1.29-.47,1.63-.59-.61.22-1.13.41-1.63.59Z"/>
        <path class="cls-1" d="m56.24,423.33c1.34,2.54,2.69,5.11,4.04,7.68l.72.88c.13-.43-3.93-9.22-4.76-8.56Z"/>
        <path class="cls-1" d="m397.45,33.9c-1-.43-2.02-.84-3.05-1.23-.24-.03-.47-.06-.65-.09.57.39,2.65,1,3.7,1.31Z"/>
        <path class="cls-1" d="m158.93,49.58c.97-.65,1.83-1.3,2.39-1.94-1.48,1.04-2.1,1.57-2.39,1.94Z"/>
        <path class="cls-1" d="m400.08,38.83c2.56,1.16,4.58,1.48,7.28,2.49-3.04-1.14-6.32-2.97-10.27-4.92,1.17.79,2.9,1.92,2.99,2.43Z"/>
        <path class="cls-1" d="m82.2,97.58s0,0,.01-.01h0s0,.01-.01.01Z"/>
        <path class="cls-1" d="m29.47,290.07c0-.2,0,.12,0,.22v-.11s0-.07,0-.07v-.04s0,0,0,0Z"/>
        <path class="cls-1" d="m.09,302.72c.04,1.24.12,2.9.31,4.56.31,3.31.63,6.61.63,6.61l.56-4.41s.56,3.88,1.13,7.76c.25,1.94.61,3.86.91,5.3.28,1.44.47,2.4.47,2.4,2.2,9.38.64-4.01,1.53-2.84,0,0-.43-.77-.85-1.53-.44-.76-.82-1.53-.82-1.53-.14-6.3-2.08-15.09-1.03-16.46.73,10.25,1.75,7.72,2.53,11.73l-1.25-9.68.91-3.22c-.05-2.41-.1-4.69-.14-6.83-.02-1.07-.05-2.11-.08-3.12-.01-.62-.03-1.23-.04-1.83,0-.46,0-.92,0-1.37.01-3.6-.13-6.75-.62-9.51-.59,3.79.8,6.22-.03,9.6-.77-2.28-1.12-6.27-1.31-11.08-.12-4.91.27-11.25.45-17.21.43-.27,1-3.96,1.14-2.35.13.27-.19,2.27-.32,3.44.4-.41.59,1.06.84,1.24.27.19.48-1,1.43-6.39.52,3.99,1.95,12.49,2.34,12.18-.34,6.61-.29,15-.84,19.87l-.23-.39c-.01.33-.03.68-.04,1.05,0,.46-.01.95-.02,1.45.04.85.09,1.75.14,2.69.12,1.87.25,3.86.37,5.71.23,3.7.29,6.83-.21,7.32.53,3.34,1.6,12.54,1.55,3.09,0,0,.47,3.86.93,7.71.2,1.93.52,3.84.78,5.27.25,1.44.41,2.4.41,2.4-2.41-2.35-.98,12.35-4.64-2.85.17.51.94,6.2,2.75,15.18-.09-.14-.18-.22-.28-.39-.19-.51-.37-.92-.58-1.13-.3-1.83-.45-2.95-.12-3.31-2.18-5.24-1.65,2.86-.11,11.34l1.52,1.78c.26,3.73.61,6.68,1.05,9.94.5,3.24,1.01,6.82,2.69,11.5,0,0,2.59,5.31,5.34,10.46,2.88,5.06,5.77,10.13,5.77,10.13.78,2.07,1.77,4.09,2.65,6.16.23,1.51,1.38,4.55,2.14,6.82.74,2.28,1.26,3.72-.21,2.2-.12,1.16-1.68-1.86-3.04-6.08-.11-.69.38.3.26-.4-1.14-.9-2.16-1.08-.91,4.25-1.88-5.2-2-5.91-3.9-9.31l1.89,5.25c-.82-1.9-1.83-4.02-2.88-6.14-.95-2.15-1.96-4.3-2.91-6.19-1.89-3.78-3.54-6.56-4-6.33,2.21,1.99,2.55,7.48,3.76,11.85-1.38-3.17-4.5-9.89-2.85-4.49.62.85,2.28,4.87,3.58,7.29,1.34,2.4,2.03,3.31.37-1.84,2.01,4.15,4.89,9.61,6.5,14.55-3-5.37-1.92-1.47-3.47-2.67,2.81,4.74,3.84,4.09,4.6,4.71,1.31,3.66,2.32,6.83,3.22,9.78,1.02,2.91,1.97,5.58,2.92,8.29,1.91,5.47,4.66,10.84,9.51,18.2,1.29,1.93-5.74-9.02-4.06-8.06,1.97,2.58,3.37,4.82,4.47,6.89,1.17,2.03,2.07,3.86,2.9,5.69,1.69,3.62,3.05,7.26,6.64,11.57l-.48-3.48c2.29,2.61,7.18,9.43,9.95,12.5.2,1.15,6.69,11.2.84,4.58,1.39,1.96,2.63,3.61,3.79,5,1.21,1.36,2.31,2.49,3.34,3.47,2.06,1.96,3.84,3.33,5.68,4.75,1.8,1.45,3.86,2.77,6.25,4.85,2.45,2.02,5.16,4.87,9.07,8.65-6.9-7.34-7.68-8.17-13.09-13.92,6.43,5.54,1.41.46,2.87.38,1.35,2.17,5,6.05,7.24,8.49,2.3,2.37,3.13,3.39-1.24-.09,4.63,4.87,14.44,14.14,17.33,15.55l-4.07-4.27c3.67,3.17,7.42,6.19,10.82,8.48,3.46,2.22,6.43,3.87,8.33,4.63-9.48-7.23-10.53-5.38-21.82-15.72-11.19-12.23,3.64,1.86-3.09-6.76,0,0-2.36-1.76-4.61-3.66-2.24-1.91-4.47-3.83-4.47-3.83l3.7,4.12c-1.19-.09-4.31-3.41-7.17-6.41-2.9-2.97-5.26-5.88-5.55-4.63-3.36-5.03-5.82-8.02-8.15-11.32-2.34-3.29-4.99-6.53-8.14-12.35-2.35-2.14.43,1.8,2.5,4.89-3.77-5.48-5.66-4.62-9.63-12.51-1.09-1.94-1.57-2.04-1.23-.84.32,1.22,1.47,3.75,3.8,6.92-1.97-2.74-3.83-5.44-5.66-8.29-1.83-2.84-3.84-5.7-5.59-8.99,0,0,.65,1.83,1.44,3.59.76,1.78,1.53,3.55,1.53,3.55,0,0-1.07-1.66-2.14-3.31-1.1-1.65-2.05-3.38-2.05-3.38,0,0,.64,1.56,1.4,3.04.75,1.49,1.5,2.99,1.5,2.99-8.22-12.71-16.03-28.33-17.54-36.34,3.14,5.72,7.27,13.33,11.27,20.21,2.11,3.38,4.15,6.59,6.02,9.29,1.87,2.7,3.74,4.77,5.16,6.07-.51-1.36-2.24-3.32-3.85-5.49-1.54-2.21-3.01-4.62-3.17-6.68l-2.97-2.84c-2.59-3.76-7.68-13.03-7.08-14.33,3.22,5.36,5.42,8.63,7.29,11.19,1.96,2.52,3.62,4.32,5.6,6.79.24-.09.91.82,1.85,2.34.05.06.07.1.12.16l-.08-.09c1.86,3.14,5.13,8.15,7.17,10.89,2.12,3.79-.05,1.65-.5,1.39,1.66,3.36,3.76,6.1,5.74,8.74,2.01,2.63,4.09,5.03,6.37,7.31,2.23,2.32,4.47,4.64,6.72,7.18,2.37,2.44,4.74,5.1,7.11,8.22-.79.9,7.45,9.84,4.46,7.46,6.06,6.94,10.77,9.38,15.55,13.02.27,1.65,10.32,9.38,6.15,7.15,0,0,1.83,1.08,3.67,2.15,1.8,1.11,3.73,2.06,3.73,2.06,2.09,2,5.61,4.69,8.72,7.13,3.22,2.3,6.01,4.38,6.52,5.4,5.37,3.36,2.26-.16,9.31,4.98-.47-.02.03.48-1.47-.56,1.52,1.28,4.3,3.22,7.19,5.04,2.91,1.78,6.03,3.27,8.01,3.99-5.17-3.36-1.11-.92-7.27-4.83.45-.4,7.94,2.93,14.81,7.57-5.33-1.98-3.58-.57-1.09,1.1,2.51,1.62,5.74,3.51,3.18,2.68,16,8.36,26.5,10.31,41,13.71,2.08.69,4.22,1.39,6.41,2.11,2.21.63,4.46,1.27,6.73,1.91,2.27.65,4.56,1.3,6.84,1.95,2.31.53,4.62,1.06,6.89,1.58,2.28.51,4.53,1,6.73,1.49,2.22.35,4.4.69,6.49,1.02,4.2.61,8.09,1.13,11.54,1.14l-1.78-.29,8.19.14c4.69.53-.17,1.83,7.25,1.99-2.68,1.39-12.75-1.11-20.31-1.2,3.11.95,3.95,1.21,3.54,1.41-.41.19-2.06.12-3.82-.05-3.54-.3-7.63-.74-3.49.59,1.35-.52,3.71-.44,6.7-.2,3,.18,6.62.63,10.43,1.13,3.77.61,7.94.81,11.76,1.11,1.92.13,3.77.22,5.51.26,1.69,0,3.2-.13,4.57-.29,10.58.6-4.87,1.13.38,1.44l3.4-.84c4.18.37,5.56.7,5.43,1.33l.53.04.81.03h3.35c1.5-.01,3.02-.04,4.54-.06,3.05-.1,6.12-.12,9.11-.53,5.99-.71,11.74-1.41,16.49-2.77-12.41,2.14,4.07-1.76-8.24-.53,1.85-.36,4.76-.86,8.14-1.47,3.38-.61,7.27-1.05,11.02-1.73-3.58.85-1.08.94.3,1.11.69.08,1.11.19.33.42-.77.26-2.73.61-6.82.96,1.23.56,3.25.32,5.83-.35,2.58-.69,5.73-1.64,9.34-2.17-3.57,1.17-11.61,3.55-10.87,3.52,5.27-1.95,14.04-2.97,21.9-4.58,7.93-1.29,14.89-3.15,16.77-4.32,7.31-3.44,18.49-8.54,26.93-13.37,4.62-1.39,9.27-3.46,14.03-5.62,4.63-2.43,9.46-4.81,14.24-7.36l-1.4,1.47c2.74-1.39,6.11-3.41,9.79-5.62,3.66-2.25,7.47-4.92,11.37-7.22l2.31-.21c2.46-1.94,6.05-4.64,9.99-7.54,3.84-3.05,7.99-6.35,11.72-9.31-.3-.51-7.14,4.97-4.35,1.81-3.73,2.91-6.8,5.49-5.06,5-3.73,2.92-4.6,2.08-8.01,3.96,0,0,.9-.7,2.26-1.75,1.36-1.04,3.17-2.43,4.88-3.94,3.47-2.96,6.93-5.91,6.93-5.91,1.2-.84,1.65-1.11,1.78-1.1l.26-1.78c3.56-3.07,4.79-3.73,4.5-2.85,1.85-1.76,3.36-3.28,4.67-4.72,1.24-1.49,2.36-2.84,3.49-4.2,2.23-2.73,4.69-5.29,8.45-9.12-2.35,4.04-4.1,6.55-9.59,11.82,0,0,2.23-2.12,4.45-4.25,1.11-1.07,2.22-2.12,3.06-2.92.8-.84,1.33-1.39,1.33-1.39-1.51,2.45-6.34,7.18-10.16,11.27-4.01,3.89-7.13,7.08-5.16,6.55,9.97-9.34,23.23-24.2,29.52-34.32,2.63-1.88,4.92-5.06,7.52-8.62,2.67-3.51,5.26-7.69,8.49-11.75,1.06-.98,3.19-3.38,2.55-1.48l-1.64,2.39c8.1-11.14,15.48-25.16,19.75-36.53,0,0,1.01-1.24,2.02-2.48.96-1.27,1.91-2.55,1.91-2.55,4.55-9.43,3.64-8.75,2.67-8.17-.49.29-.99.55-.85-.48.18-1.02.91-3.36,2.74-8.35,3.57-4.13,9.3-24.44,10.46-25,.96-3.88,1.51-5.61.79-6.3-1.08,3.41-3,11.13-2.74,6.51.78-3.55,1.62-6.08,2.37-8.45.68-2.39,1.36-4.6,1.97-7.42.15.43-.03,4.64.29,2.42.63-3.49,1.61-7.67,2.22-12.3.69-4.61,1.56-9.56,1.9-14.56.47-4.97.88-9.94.78-14.54-.01-4.59-.06-8.74-.66-12.04.16,5,.82,5.6-.1,12.3-.63-.16-.25-3.71-.47-5.2-1.31.75.45,6.99-1.27,13.85,0,0,0-.73,0-1.83.03-1.1-.03-2.57-.11-4.04-.13-2.93-.27-5.85-.27-5.85l-1.58,6.42s-.31-6.58-.62-13.15c-.62-6.63-1.24-13.25-1.24-13.25-.35,5.44-.32,10.17-.18,14.45-.05,4.19.09,7.98.22,11.68.12,3.7-.09,7.29-.34,11.04-.21,3.76-.96,7.64-2.13,11.91.13-2.8-.66-.17-1.07.45-.27,5.65-1.98,12.14-1.95,15.7,0,0-.45,2.19-1.08,4.35-.62,2.14-1.24,4.3-1.24,4.3-.66-.29-.93-3.93,1.02-12.78-3.68,15.42-7.14,29.07-12.01,42.34-4.83,13.25-10.68,26.3-19.57,39.73-.96,1,1.94-3.83.51-1.88-1.72,3.29-4.54,8.35-4.98,9.67.05-.55.29-1.52,1.49-3.46-8.58,14.33-15.65,20-21.78,28.77-.49-.04.75-1.66,1.97-3.17,1.17-1.56,2.29-3.03,1.76-2.58-2.58,3.16-5.07,5.77-7.11,8.43-1.03,1.33-2.01,2.61-2.99,3.87-1,1.23-1.99,2.44-2.98,3.65-1.98,2.41-3.88,4.93-6.14,7.45-2.3,2.48-4.83,5.1-7.83,7.96,1.61-2.3.75-1.87-.96-.56-1.75,1.26-4.44,3.33-6.33,4.55-1.21,1.18-2.6,2.53-4.12,4.01-1.61,1.38-3.37,2.88-5.24,4.48-3.7,3.26-8.12,6.55-12.72,9.97-2.26,1.77-4.72,3.35-7.14,5-2.45,1.61-4.84,3.34-7.31,4.86-4.99,2.97-9.72,6.11-14.28,8.51,1.75-2.48-3.3.17-9.19,3.1-5.98,2.74-12.75,5.93-14.02,5.03-4.24,1.62-10.63,4.69-10.85,5.57,2.25-1.18,8.22-2.9,7.65-2.12-6.09,2.8-15.85,5.85-16.36,7.29,0,0-2.04.42-4.14.67-2.07.29-4.15.58-4.15.58-.24.97-2.51,2.76-6.96,3.95-10.5.12,1.46,1.29-13.11,3.36,3.07-1.6,5.8-2.97,6.8-3.93-6.89,1.36-5.83,1.75-10.69,2.82-1.73-.39,4.5-2.64,9.54-4.42,0,0-2.22.35-4.44.69-1.11.19-2.22.32-3.06.4-.84.09-1.4.14-1.4.14-8.16,3.05-22.95,7.18-37.04,7.5,2.23-1,6.74-1.32,3.02-2.18-2.97.45-6.45,1-10.19,1.41-3.78.4-7.68.8-11.7.22,1.11-.07.43-.23,1.52-.3-14.1.91-10.61-.56-23.09-1.65.21-.1.26-.26.64-.37,0,0-1.92.12-3.85.07-1.93-.04-3.87-.07-3.87-.07-4.07-.02-7.24-.18-9.8-.64-2.56-.51-4.54-1.12-6.3-1.78-3.52-1.31-6.15-2.82-10.73-4.37l2.11.3c-5.61-2.45-24.59-6.22-29.53-8.85,6.18,3,1.88,1.52,6.19,4.5,5.9,1.32,4.6-.77,14.1,2.44-1.57,1-13.98-1.89-16.78-1.81-5.41-1.75-8.32-5.02-8.56-5.93-3.3-1.16-6.17-2.37-8.93-3.47-2.77-1.08-5.35-2.23-7.98-3.53-2.65-1.24-5.39-2.51-8.44-3.94-2.99-1.53-6.31-3.18-10.17-5.03-2.94-.99-5.72-1.57-9.3-2.89-3.61-1.26-7.8-3.65-13.35-8.33h.93c-.95.56-5.67-4.04-8.4-5.22,3.25,4.08-5.6-2.8-1.39,1.83-7.06-4.79-6.84-7.42-6.81-8.81-5.94-2.12-12.43-11.06-22.34-19.18,1.12.48,4.22,3.14,6.65,5.01,2.49,1.81,4.23,2.92,2.37.69,0,0-.87-.56-2.18-1.42-1.26-.9-2.94-2.11-4.63-3.31-1.69-1.21-3.38-2.43-4.65-3.34-1.28-.9-2.09-1.55-2.1-1.55,0,0,1.3,1.3,2.64,2.56,1.33,1.26,2.67,2.53,2.67,2.53-5.13-3.71-7.83-6.73-9.9-9.39-2.07-2.66-3.54-4.97-5.64-7.96-.45-1.49,2.69,2.04,5.19,4.56-2.68-2.74-6.7-7.34-10.39-10.79-2.91-2.48-11.65-12.35-15.47-16.2-.38-.61-.75-1.21-1.14-1.82.21.11.5.32.78.65-.65-.85-1.21-1.53-1.73-2.15-1.21-1.86-2.25-3.83-3.39-5.76l.95.98c-.54-.7-1.06-1.39-1.57-2.05-1.15-1.98-2.3-3.97-3.46-5.96l-2.17-2.83.82,1.54c-.81.12-2.5-1.49-4.59-4.22-2.16-2.69-4.5-6.62-6.64-11.09.32.58,2.23,5.41,5.88,11.96l-1.68-1.92c-2.65-4.9-4.79-9.86-7.1-14.54-2.01-4.82-4.05-9.44-5.8-13.99,1.61,3.21,3.43,6.41,5.07,10.45-3.06-9.94-10.93-24.08-10.42-29.5,6.81,14.38,8.82,21.7,16.75,36.37,2.48,8.32-5.74-9.11-6.53-9.36,0,0,.88,2.21,1.76,4.41.91,2.2,1.94,4.34,1.94,4.34.13-.77,2.36,3.28,4.5,6.84,2.21,3.53,4.5,6.48,4.16,3.87-2.52-4.5-4.51-9.26-6.79-13.82-2.15-4.62-4.01-9.31-6.01-13.84-1.71-4.64-3.54-9.16-5.12-13.62-1.44-4.51-3.03-8.84-4.29-13.09,0,0,.89.85,2.35,2.07,1.45,1.18,3.38,2.77,5.32,4.35,1.91,1.53,3.83,3.07,5.26,4.22,1.44,1.12,2.46,1.83,2.46,1.83.13-.05.45.16,1.04.75l-1.04-.75c-.42.17,1.24,3.27,2.94,6.77-.74-.57-1.59-1.16.16,3.1,3.01,8.82,7.04,12.56,9.98,18.53l-1.11-1.75c2.31,5.89,6.6,12.79,9.72,16.54.98,5.37-9.44-15.58-5.94-6.27-1.56-3.13-3.58-6.86-5.67-10.34-2.16-3.46-4.05-6.84-5.19-9.3,1.6,4.25,3.02,8.27,3.75,11.02.7,2.77.68,4.29-.38,3.38,2.44,4.3,4.13,6.17,5.08,7,.97.82,1.35.51,1.69.14.66-.74,1.13-1.67,5.68,5.48l6.01,10.09s.97.57,2,1.1c1.01.54,2.02,1.07,2.02,1.07,4.09,5.71-3.86-2.58,2.52,6.12,2.36,1.9,6.13,7.78,7.88,9.11-.51.03-1.1.32,2.44,4.6.43.12.7-.76,3.54,2.53.4,3.63-7.57-8.25-5.71-3.18,8.16,9.49,6.54,4.9,8.34,5.83-.32-.28-.69-.86-1.47-1.82.56-.33,3.58,4.01,3.8,3.07-1.32-1.63-2.82-3.08-4.16-4.33,2.98,2.33-3.12-5.37-5.27-8.41-6.33-5.88-16.02-20.64-22.09-30.67.6.84,1.77,2.5,1.39,1.24-2.08-3.61-3.89-6.68-5.42-9.59-1.46-2.95-2.8-5.65-4.17-8.43-1.45-2.74-2.57-5.7-4.11-8.94-1.57-3.23-3.11-6.92-4.95-11.32l-2.19-1.57c-5.73-15.73-6.53-6.31-8.28-10.07-1.4-3.5-3.07-6.39-3.27-9.73l1.05,1.56c-1.72-5.05-2.32-5.76-2.8-6.35-.49-.59-.85-1.05-1.81-5.73-2.61-7.3,1.31,6.68-.64,2.08-1.92-10.05-4.47-5.52-5.99-21.56.61.68,1.39-2.01,3.23,7.13l-.54-9.12c2.46,10.44,1.01,4.06,3.27,14.76,2.59,4.59,3.24,3.21,5.49,7.39-1.28-3.87-2.24-2.82-3.56-8.78-1.02-7.31.89,1,1.62,1.58-1.97-4.55-1.88-7.36-2.01-9.94-.04-2.62-.21-5.05-1.49-9.25-1.43,1.92-1.78.24-1.82,6.62-1.6-6.07-1.27-14.13.25-13.68l-1.52-1.12c.13-1.47-.15-6.42.15-6.76l-.83-2.04c-.34,2.32-.57,4.42-.58,6.91.02,2.49.46,5.37,1.19,9.26-1.32-3.08-1.74,4.69-3.35-5.57-.56-4.43.71-.61,1.06-.94-.86-5.73-1.06-10.09-1.22-13.64-.09-3.55.25-6.33.45-8.92.12-1.3.23-2.56.34-3.86.05-.65.09-1.32.14-1.99l.02-.26v-.07s0-.03,0-.03c0,.03,0,.09,0,.25h0s0-.02,0-.02v-.14s.07-.54.07-.54c.03-.36.07-.74.1-1.11.26-3.04.4-6.58.32-11.31.25,2.37.09,6.42-.05,11.02-.01.57-.03,1.16-.05,1.74v.16s0,0,0,0v.43s.04.86.04.86c.05,1.15.1,2.32.15,3.48.13,2.33.32,4.64.62,6.8.53-2.64.36-5.44.06-8.24-.15-1.31-.3-2.63-.44-3.9-.07-1.43-.11-2.82-.03-4.14.51,4.72.97,5.52,1.67,0l-.77-2.31c.05-1.66.11-3.98.16-5.94.08-1.96.34-3.36.53-3.58-.27-.12-.7,1.1-1.03,4.11-.37-4.11-.36-9.62.04-16.14.31-3.27.71-6.72,1.17-10.24.48-3.51,1.31-7.04,2.04-10.53.78.66.13,5.69-.31,9.3-.26,3.64-.38,5.86.93.87.27-2.88.25-5.55.4-8.73.09-1.6.23-3.31.53-5.25.39-1.91.95-4.02,1.74-6.41.03,4.37,2.05-4.22,2.63-3.93,0,0,.07-.88.17-2.2.17-1.31.39-3.04.61-4.78.45-3.5.9-7,.9-7,2.05-5.68,4.26-12.09,6.05-17.63-.58,1.62-1.33,3.47-2.17,5.65.62-4.85,2.51-8.87,4.5-13.13,2.26-4.16,4.63-8.58,6.93-14.18,0,0-.47,1.32-.94,2.64-.41,1.34-.82,2.69-.82,2.69,4.27-8.03,7.04-14.73,10.17-21.32l1,.82c-1.2-1.79,6.86-15.38,8.53-18.51-5.76,9.66-8.55,13.58-11.15,17.56-1.31,1.98-2.67,3.92-4.2,6.64-1.44,2.77-3.16,6.27-5.32,11.27,1.04-4.04,2.2-7.42,3.4-10.9,1.19-3.48,2.75-6.87,4.24-11.21,1.77-2.93,2.8-3.88,3.27-3.9,1-2.81.52-4.13,3.01-8.9l1.45-.98c9.34-11.96,5.57-12.97,15.25-24.03,3.07-1.18-6.47,11.02-10.61,18.95,2.59-2.35.65.7-1.14,3.66-1.84,2.93-3.21,5.96-.22,3.18l1.66-4.08c2.62-3.65,3.04-2.73,1.46-.44,3.16-5.01,2.61-3.65,3.22-5.93,6.94-9.05,7-8.22,7.07-7.3.04.46.1.95,1.03.26.9-.71,2.73-2.55,6.52-6.57-1.33,2.16-5.34,6.75-3.81,6.46l-7.6,9.05.89.94c4.63-5.81,7.89-10.77,10.69-14.83,2.69-4.16,4.59-7.73,6.26-10.89-4.28,5.3-4.62,5.48-4.78,4.75-.13-.7.11-2.19-2.47.32,1.25-2.47,3.22-4.1,4.55-4.92.42-.97,5.02-6.14,3.9-5.97,2.14-.21,8.67-5.31,14.27-9.47,5.78-3.97,10.55-7.06,9.03-3.68,1.67-1.24,4.24-3.09,7.24-5.51,1.49-1.22,3.13-2.55,4.86-3.96,1.78-1.35,3.65-2.77,5.59-4.24,7.67-5.99,16.86-12.02,24.7-16.54l-3.82,3.2c2.21-.88,4.06-1.72,5.66-2.47,1.63-.69,2.97-1.35,4.12-1.99,2.28-1.26,3.74-2.44,4.94-3.6,2.39-2.35,3.87-4.4,8.76-7.09-4.23,2.51-2.11,1.91,1.53.59,3.62-1.39,8.98-3,10.94-3.35,3.82-2.15,7.39-3.92,11.38-5.87,3.98-2.02,8.59-3.59,14.54-5.23,2.77.46,3.62,2.44,11.21.8,0,0,1.22-.57,2.45-1.13,1.22-.59,2.47-1.1,2.47-1.11,3.85-.61,8.28-1.62,12.4-2.47,4.15-.64,7.97-1.17,10.49-1.08l-1.05.22c4.37-.28,6.61-.64,6.9-1.11.29-.41-1.38-.93-4.78-.64,0,0,.51-.11,1.28-.28.77-.13,1.81-.3,2.84-.48,2.07-.35,4.14-.69,4.14-.69l.31.38c10.99-1.64,21.25-3.93,39.2-3.17-4.66.9,12.98,3.35-2.64,2.53,4.5-.25-2.4-1.46-3.37-2-2.96-.22-5.78-.02-8.2.24-2.32.28-4.25.51-5.5.65.12.04.22.09.31.14l.13.07.03.02h.01s0,.01,0,.01h0s0,0,0,0h0s-.21,0-.21,0l.05.04c.13.12.21.25.23.39.03.14,0,.28-.06.43-.03.07-.08.15-.13.22l-.09.12-.02.03h-.01s0,.02,0,.02h0,.24s0,0,0,0h0s-.05.07-.05.07c-.56.65-1.72,1.35-3.22,1.87.7-.14,1.48-.28,2.33-.4l.65-.09.17-.02h.08s.04-.02.04-.02c-.12,0,.29,0-.27,0h.03s.36-.03.36-.03c.48-.02.97-.05,1.48-.09,2.03-.1,4.29-.15,6.69-.17,4.91-.15,9.83.25,14.56.52,4.71.14,9.31.77,12.84.85,3.55.09,6.09-.05,6.86-.73,13.87,2.24,31.99,5.95,46.92,12.03-.58-.35-1.72-1.05-1.28-1.16,0,0,.79.36,1.98.91,1.2.51,2.75,1.31,4.29,2.13,3.08,1.61,6.16,3.22,6.16,3.22l-3.06-.89s2.01,1.08,4.03,2.15c1.01.53,2.01,1.08,2.73,1.54.74.44,1.22.74,1.22.74.63.9-2.74-.16-6.28-1.33-2.05-.61-3.68-1.73-1.68-1.14-9.42-2.54,7.3,3.44.99,2.23-2.13-1.06-5.09-1.92-6.64-2.59,9.94,4.71,15.41,5,20.8,9.5,2.6.63,6.38,1.99,10.62,3.78,4.23,1.81,8.69,4.51,12.82,7.37-3.67-1.43,9.23,5.71,4.21,4.28,1.81.73,4.51,2.45,6.87,4.14,2.34,1.73,4.45,3.26,5.35,3.3-1.36-.51-4.84-3.14-7.18-5.06,3.66,1.96,4.52,1.63,8.55,4.66.44.51,0,.48,0,.48,5.84,3.16,3.7-1.27,12.9,5.9,12,9.56,10.49,9.62,6.58,7.47-1.95-1.09-4.58-2.56-6.52-3.64-1.99-.98-3.29-1.53-2.55-.74.69.04,3.72,2.04,6.98,4.74,1.65,1.32,3.38,2.79,4.96,4.19,1.56,1.43,2.87,2.89,3.85,4.04l-1.28-.74c2.4,1.95,6.22,4.56,7.93,7.45,2.16.51,5.5,2.32,7.6,3.34,0,0,2.46,2.41,4.69,5.02,2.29,2.57,4.58,5.13,4.58,5.13l-2.38-1.71c2.27,2.17,4.12,4.22,5.81,6.41-.03,1.55-2.2-1.9-5.29-4.75.86,2.2,2.61,4.27,5.29,6.27l-1.01-1.38c2.57,2.4,11.66,11.79,5.6,3.51,5.49,5.55,5.17,8.78,8.66,12.74-.33.87-3.32-2.93-2.28-.44,2.83,4.23,4.39,7.24,7.02,10.52-1.97-3.56,1.25.59-1.83-5.07,1.68,1.85,5.4,7.25,5.55,6.86-1.24-1.7-2.35-2.72-3.9-6.09,4.2,5.56,7.76,11.91,10.67,18.43-.28-.14-.76-.69-1.28-1.32,2.64,3.82,5.7,8.77,8.17,13.59,2.46,4.83,4.92,9.26,6.71,11.9l-.72-2.69c-1.27-1.91-3.24-6.03-3.6-7.85,3.27,6.22-.75-5.15,2.92,1.36,2.53,4.5,4,9.15,5.46,13.16,1.53,3.99,2.65,7.48,4.38,9.86-2.81-9.37-7.22-21.92-9.64-25.2l2.54,5.79s-1.97-3.07-3.93-6.14c-.98-1.52-1.96-3.05-2.69-4.19-.79-1.11-1.32-1.85-1.32-1.85.42-.83-6.13-11.06-5.04-11.38,2.6,4.22,4.54,8.31,6.46,11.68.04-1.05-5.67-12.01-8.31-16.51l2.87,5.92c-6.55-9.76-14.28-22.54-21.68-31.16,2.97,3.34,1.53.89-.09-1.71-1.71-2.54-3.56-5.26-.92-2.76,2.41,1.84,4.24,6.36,3.71,5.08.71.04-.24-1.43-1.49-3.17-1.31-1.7-2.89-3.69-3.28-4.86-.66-.25-2.87-2.6-4.46-4.14-1.62-1.52-2.64-2.21-.78.68-2.06-3.17-8.19-8.74-11.16-12.94.05,2.02-7.13-6.37-8.95-7.21-1.55-1.57-2.77-3.1-3.66-4.36,1.86,1.48,3.93,3.13,6.13,4.88,2.13,1.84,4.38,3.78,6.69,5.76h-.01c1.58,1.85,4.55,5.26,3.87,4.07l.43-.26c4.42,4.17,8.92,8.32,12.55,12.27,1.85,1.94,3.62,3.73,5.12,5.37,1.45,1.69,2.72,3.16,3.74,4.35l-2.28-2.04c6.73,6.49,10.47,15.18,16.26,22.72-.4-.22-1.02-1.11-.19.45,1.41,2.56,2.73,4.66,3.98,6.52,1.22,1.87,2.3,3.53,3.34,5.14,2.06,3.22,4.09,6.16,5.48,10.72l-1.15-.76c.41.68,3.24,5.51,3.53,4.17-1.8-3.52-2.86-5.63-3.88-7.63-1.1-1.96-2.11-3.85-3.62-7.05,1.9,2.27,5.35,7.63,7.18,11.93l1.37-.07c1.82,2.47,3.04,5.28,4,8.16.97,2.89,1.93,5.76,3.66,8.31l-1.79-6.88c.13.16.36.67.56,1.07-1.27-2.94-2.48-5.42-3.1-5.97-2.51-4.69-3.88-8.48-4.71-11.31-.91-2.79-1.17-4.68-1.26-5.6-1.92-4.65,2.26.87,2.69-.02-3.95-7.1-4.89-6.06-9.18-12.9-.92-1.93-.32-1.42.27-.66l-3.25-4.35c.26-.49-7.02-12.28-1.82-5.86.62,1.05,1.9,2.94,2.78,4.46-5.05-10.16-15.71-26.79-14.41-27.02-3.67-5.08-2.96-3.41-9.02-11.31-3.79-2.82-1.34,1.59-8.92-6.08l5.18,6.74c1.29,1.19,2.43,2.13,3.81,3.47l-5.88-6.61c4.01,3.91,3.78,2.82,5.6,3.44,8.78,10.54,9.55,14.66,13.13,20.56-3.02-3.03-7.18-8.98-6.55-6.05-3.35-5.96-5.36-5.32-9.61-11.95l1.24.93c-4.89-4.2-4.58-5.63-8.68-9.03.45.13.09-.48-.27-1.07-8.28-7.9,1.82,2.99-6.92-4.45-3.4-3.75-3.69-4.63-3.23-4.96.46-.33,1.63-.06.82-1.24,6.61,5.5,6.86,5.18,7.29,4.89.37-.22,1-.48,7.76,6.04,1.27-1.21-3.59-6.82-10.78-13.88,4.06,5.18-4.57-1.28.59,5.77-11.18-9.91-12.36-6.69-23.82-18.61l.46.07s-1.47-.89-3-1.68c-1.52-.81-3.03-1.63-3.03-1.63,0,0-1.73-1.57-3.46-3.14-.87-.79-1.73-1.57-2.38-2.16-.67-.56-1.12-.94-1.12-.94,5.64,2.13,10.8,7.16,14.9,9.38-7.75-8.62-12.98-8.34-23.59-15.96-7.88-7.88,11.62,6.72,12.48,5.51-2.35-1.27-7.79-6.09-6.8-6.02,9.76,7.69,6.76,3.61,17.15,12.84-5.66-3.74.47,1.06-.99.84,1.85.83,11.97,8.98,18.25,15.65,2.31.63-4.93-6.34-9.01-10.49-4.58-3.12-8.61-6.99-12.68-10.36-2.01-1.72-3.94-3.41-5.88-4.88-1.99-1.4-3.94-2.62-5.89-3.53-9.76-6.74-.06-1.48-.55-2.02-4.18-3.36-5.32-3.75-5.73-3.57-.41.16-.11.91-1.61.12-7-3.99-10.57-6.66-13.75-8.96-3.16-2.31-5.66-4.68-10.81-7.27-9.08-3.31-30.09-13.23-45.7-18.09,2.05.08.14-1.04-.64-1.87-5-.36-6.6-.38-8.44-.69-1.86-.22-3.93-.89-9.99-1.57,0,0,2.46.7,4.85,1.65,2.4.9,4.79,1.78,4.79,1.78-7.92-2.11-14.69-1.82-21.7-4.71,9.26,4.04-13.12-1.17-19.19-.87-8.06-1.96-16.61-.9-21.1-2.54h1.14s-3.1-.36-5.96-.43c-2.91-.13-5.83-.26-5.83-.26l1.46-1.96c-2-.24-4.11-.35-6.12-.36h-1.21s-.19.01-.19.01l-.38.03c-.5.04-1,.07-1.47.11-.95.1-1.85.2-2.66.29-3.23.43-5.05,1-3.61,1.26-8.72-.29-3.6-.65-4.91-1.55,2.45-.38,6.33-1.06,9.99-1.46.92-.1,1.82-.18,2.68-.23l.64-.04h.91c.39.02.77.04,1.13.05,1.44.09,2.62.32,3.34.74-.68-.16-2.45-.27-2.86-.03,10.93.73,12.73.16,13.25-.54.47-.75-.54-1.79,5.36-1.61-6.27-.7-10.38-1.69-16.48-1.31-.71.01-1.95.04-3.52.07l-.6.02h-.54s-.17.02-.17.02l-.33.03c-.45.04-.92.08-1.4.12-.96.09-1.97.18-3.01.28-4.15.43-8.68.8-11.7,1.42,4.14-.74,7.32-.7,10.26-.61,1.47.07,2.88.18,4.34.31.83.07,1.68.14,2.55.22.72.11,1.47.22,2.25.33-.66-.04-1.25-.05-1.79-.05-.39,0-.76.01-1.11.01-.25.02-.5.04-.73.06-.94.09-1.72.22-2.47.33-1.51.22-2.92.37-5.29.1l1.54-.38-6.02.87c-.95-1.27-16.6.72-7.51-1.4-8.22.92-2.76,1.21-10.17,2.34,0,0,.92-.13,2.3-.18,1.38-.07,3.23-.15,5.07-.24,3.68-.17,7.37-.34,7.37-.34l-.18,1.29c-5.28,1.27-6.63.43-12.53.96l.64,1.37s-.66-.05-1.64-.03c-.99.01-2.3.03-3.61.04-2.63.03-5.27.06-5.27.06,1.4.74-6.61,1.39-8.76,2.08-5.76.5-2.51-2.43-11.95.69h.72c-5.38,1.8-8.61,2.56-16.46,4.38.35-.35,2.44-1.14,3.49-1.53-11.17,2.19-27.67,9.85-33.08,10.1.45-1.38,5.08-2.51,4.87-3.79,17.13-4.04,10.92-6.25,31.3-10.59.8,1.27,4.94-.11,9.48-1.58,4.56-1.33,9.56-2.59,11.72-1.57-4.02.56-8.63,1.63-11.98,2.79-3.34,1.2-5.49,2.22-4.76,2.2,1.8-.45,3.79-.94,5.83-1.44,2.05-.43,4.19-.79,6.24-1.18,4.12-.69,7.95-1.46,10.55-1.55-4.65-.31-3.47-2.06-.28-3.47-3,.5-6.57,1.32-10.57,1.91-2,.3-4.1.62-6.27.95-2.15.4-4.37.82-6.64,1.24-2.27.41-4.57.84-6.89,1.26-2.31.48-4.6,1.05-6.89,1.58-4.58,1.06-9.07,2.18-13.16,3.58l2.37,1.01c-13.66,5.92,1.2-2.11-9.84,1.55,0,0-1.11.72-2.19,1.5-1.08.76-2.17,1.53-2.17,1.53l-.73.13-7.33,4.54c5.53-2.27,2.52-2.4,8.91-4.17,5.65-1.62.21,1.28-.97,2.8-1.93.51-6.2,2.08-8.95,3.15-2.73,1.1-4.06,1.48-.29-.85,0,0-3.38,1.99-6.75,3.99-1.68,1-3.35,1.99-4.61,2.74-1.22.81-2.04,1.35-2.04,1.35-.19-.64,2.71-2.43,4.03-3.34,0,0-2.54,1.19-4.99,2.59-2.46,1.35-4.93,2.69-4.93,2.69l.25-.4c-7.75,4.71-18.57,11.24-23.64,16.04,13.52-7.19-5.38,5.1-3.67,5.24-4.48,3.07-7.77,1.46,1.33-6.08,3.21-.86,9.23-6.41,14.44-9.32-7.01,3.24-8.52,5.37-13.54,8.64,3.14-2.96-7.27,3.49-7.46,3.02.37-.88,1.59-3.6,8.52-7.24,9.83-6.19,1.85.68,4.59-1.41,3.44-.21,13.71-8.51,20.29-11.14.72-.2-1.24,1.01-2.2,1.61,2.68-1.36,6.76-3.66,10.4-5.43,3.62-1.81,6.61-3.47,6.81-4.17,0,0-3.36,1.75-6.72,3.49-1.69.85-3.34,1.76-4.56,2.5-1.22.72-2.04,1.19-2.04,1.19-3.09,1.18,3.71-3.04-.8-1.47-2.92,1.87-6.61,3.72-10.61,5.76l.5-.84c-8.47,3.71-20.74,11.44-28.96,18.18-.25,1.7-1.26,3.65-2.48,5.76-1.19,2.15-2.5,4.56-3.48,7.02-12.13,9.56-24.17,20.38-35.63,32.22.57.16.85.62.67,1.51-3.52,3.07-8.74,9.87-9.55,8.87-2.22,4.69-10.02,16.44-7.33,15.08-.3.47-.68,1.05-1.01,1.56-4.51,4-10.77,10.59-19.03,24.47-1.59,2.73-1.08,3.53.33,3.49-2.06,2.72-3.72,5.46-5.25,8.29.67-2.43.64-4.27,2.92-8.43,0,0-.86,1.31-1.93,3.4-1.11,2.08-2.58,4.84-4.06,7.61-1.53,2.74-2.82,5.6-3.84,7.73-1,2.13-1.68,3.55-1.68,3.55l.27-2.01s-.83,2.34-1.66,4.69c-.43,1.16-.8,2.34-1.06,3.24-.27.89-.45,1.48-.45,1.48,1.71-5.33,5.79-12.97,5.99-10.54-1.9,5.27-3.79,9.21-5.25,13.1-1.51,3.88-3.03,7.53-3.68,12.3-2.15-.83-3.53,2.15-3.75-1.31.23-.61.37-.87.48-1.03-.15-3.84,1.61-11.42,3.48-17.14-4.23,9.7-5.73,13.35-6.77,16.8-.57,1.71-1.11,3.34-1.88,5.65-.4,1.15-.87,2.46-1.42,4.04-.5,1.6-1.08,3.46-1.77,5.68-.83.61-.09-3.64.84-7.5.98-3.84,1.91-7.36.79-5.44,0,0,1.5-4.14,3.18-8.2,1.76-4.03,3.52-8.05,3.52-8.05-1.01,2.81-.87,3.26-1.18,4.66,1.74-5.81,3.33-9.61,4.93-13,1.58-3.39,2.74-6.56,4.15-10.95,1.59-2.43.79-.32,0,1.7-.79,2.03-1.46,4.04-.08,1.21-1.99,4.98-2.77,10.35-2.86,13.06,3.05-6.12,3.47-8.05,3.66-9.83.17-1.79.15-3.39,2.6-8.72,0,0,1.25-1.81,2.51-3.62,1.24-1.82,2.54-3.59,2.54-3.59,2.44-4.68-1.51,1.13-1.92,1.27,2.83-5.79,4.85-7.46,7.26-11.67-.97,1.08-2.92,3.76-2.93,2.79,2.39-3.29,4.61-6.62,6.92-9.81,2.29-3.2,4.59-6.31,7.58-8.77-3.24,3,.98-5.33,2.77-8.33,0,0-2.62,2.88-5.24,5.76-1.31,1.46-2.62,2.91-3.6,4-.93,1.13-1.55,1.88-1.55,1.88-10.22,16.84-17.02,27.28-24.73,47.19l-.15-1.44c-7.56,15.08-8.66,22.2-9.61,28.54-.56,6.48-1.08,12.25-4.07,26.12-2.13.36-2.18,12.97-3.75,11.6,1.64-8.46.66-6.88-.6-4.61-.23,5.08.27,8.44-1.5,17.94-.46-3.66-2.3,4.71-1.45-4.78-2.21,12.82-2.32,20.76-1.2,27.42.52,10.08,0,11.58-.62,13.06l-.03.07v.04s-.02,0-.02,0v.45s0,0,0,0v.02s-.06.14-.06.14l-.1.31c-.06.22-.12.45-.19.72-.12.53-.23,1.21-.29,2.17-.13,1.92-.11,4.99.26,10.3l-.76-3.1s.04.82.09,2.07Zm55.71,93.53s-.59-1.41-1.17-2.84c-.6-1.41-1.13-2.85-1.13-2.85,1.02,2.16,2.03,4.21,2.31,5.68Zm-22.06-15.57c.82,2.4,1.16,3.73,1.33,4.43-.55-1.76-1.08-3.45-1.61-5.14.11.3.16.4.28.71Zm-3.18-14.87c.29,2.1.04,2.79-.28,3.48-.43-1.67-.85-3.29-1.25-4.89l1.54,1.41ZM360.45,21.25s-.45.15-1.54,0c5.94,1.28,9.06,2.43,11.98,3.11,2.9.75,5.51,1.4,10.11,2.91l-3.03-.32c.67.73,2.93,1.47,5.96,2.35,1.52.43,3.22.92,5.02,1.43,1.77.6,3.62,1.25,5.45,1.95,2.35.38,7.33,1.65,9.86,3.64l-1.4.18c.5.58,2.51,1.68,5.39,3.08,1.45.69,3.1,1.47,4.89,2.32,1.76.91,3.64,1.88,5.58,2.88-1.07-.28-2.24-.59-3.51-.93-2.21-.59-4.76-1.32-7.63-2.44,1.62.66,3.57,1.45,5.9,3.09,0,0-.91-.32-2.32-.69-1.4-.37-3.28-.86-5.15-1.35-3.74-.97-7.44-1.93-7.44-1.93,3.41,1.71,5.59,2.17,8,2.7,2.4.54,5.05,1.12,9.09,3.5-.62.54-.88,1.05-2.16.97-1.27-.09-3.56-.74-8.31-2.23-7.75-3.81.8-.61-2.94-3.01-6.69-1.07-7.25-4.64-14.47-5.34-7.91-2.72-5.12-2.78-7.46-4.23,8.01,2.58-3.26-2.72,6.89.39-7.9-3.62-6.46-.52-13.14-3.38l-.62-1.81c-3.14-1.08-8.06-2.97-13.42-4.42-5.38-1.35-11.07-2.79-15.62-2.97,7.28,2.32-4.53.22-3.47,1.36.76-.56,3.66-.14,6.33.49,2.67.64,5.06,1.7,4.94,1.96-5.91-1.14-20.87-3.29-23.9-3.86,0,0,2.8.57,5.6,1.15,2.78.62,5.54,1.38,5.54,1.38-1.01.02-2.66-.04-4.56-.12-1.91,0-4.09-.01-6.15-.02-4.11-.02-7.75-.07-7.95.04-4.28-.97-10.8-1.3-13.04-2.32l8.18-.52,2.84,1.21s1.2-.22,2.4-.45c1.21-.16,2.42-.32,2.42-.32-2.63-.66-6.72-1.14-10.48-1.89-3.74-.74-7.19-1.42-8.42-1.95,12.67.68,31.94,1.45,55.76,4.43ZM81.61,108.95l1.42.15c3.12-3.56,6-6.85,8.8-10.04,2.76-3.21,5.32-6.41,8.13-9.41,5.44-6.16,11.27-12.17,19.16-18.09-1.54,2.43-7.54,6.84-6.42,6.61,4.49-3.83,6.17-5.81,7.8-7.82,1.71-1.91,3.32-3.97,8.55-6.68-1.66,1.26-2.8,2.06-3.46,2.67-.67.58-.93.84-.92.89.03.11,1.12-.69,2.33-1.4,2.43-1.43,5.01-2.95-.7,1.88,3.93-3.41,8.13-6.66,12.43-9.62,4.42-2.78,8.72-5.65,13.12-7.89,8.66-4.74,16.89-8.3,22.97-11.42-3.47.75,4.64-3.31,4.9-3.7,3.31-1.38,2.5-.21-.12,1.02,6.69-2.35,8.22-1.79,7.5-.51,0,0-.84.31-2.04.89-1.21.56-2.83,1.31-4.45,2.07-3.24,1.5-6.47,3-6.47,3,4.37-1.62,6.97-1.92,10.45-3.32h0s0,0,0,0c1.51-.64,3.2-1.38,5.37-2.51,2.1-1.26,1.6-1.25,1.41-1.77,2-1.2,4.24-2.54,6.78-4.06,2.63-1.39,5.56-2.93,8.85-4.66l-.31.36s.91-.33,2.28-.82c1.36-.52,3.21-1.08,5.07-1.64,3.71-1.13,7.42-2.25,7.42-2.25l-1.67,1.07s2.13-.86,4.26-1.72c2.16-.75,4.33-1.51,4.33-1.51.09,1.29,2.86-.05,2.55.92,3.02.42,7.85-.95,13.59-2.26,5.69-1.53,12.31-2.83,18.49-3.1l-1.81.81c3.23-1.13,9.05-1.47,15.34-1.74,3.15-.21,6.43,0,9.58.02,3.17.1,6.14.06,8.86.22l-.38.24c-6.53.56-7.73,1.4-4.76,1.89-2.21.32-5.7.58-7.73.92-3.55-.11-13.39,1.29-14.36.12,7.4-.58,6.7-.68,3.25-1.16-1.79.41-4,.69-6.27,1.04-2.27.38-4.61.77-6.7,1.13-4.18.71-7.34,1.41-6.83,2.29-10.07,1.87-3.11.2-10.42.88-1.05-.37,1.39-1.24,3.84-2.12,0,0-7.37,1.39-14.59,3.4-1.81.46-3.62.93-5.32,1.37-1.68.52-3.24,1.01-4.58,1.42-2.68.83-4.46,1.39-4.46,1.39-.43.83,4.27-.18,7.9-.84,3.64-.64,6.24-.74,1.51,1.25-2.33,1.1-1.45,3-11.22,5.18-.17-.14.61-.51,1.54-.87-4.31,1.48-5.12,1.41-9.91,2.71-1.86-.74,5.46-2.94,8.37-4.73-3.01,1.16-6.22,2.91-9.59,3.9l.62-.73s-2.49.92-4.98,1.85c-2.44,1.05-4.88,2.09-4.88,2.09-3.69,2.54,7.52-2.87,8.39-2.16,0,0-1.54.74-3.07,1.47-1.5.81-3.01,1.62-3.01,1.62-3.55,1.53-10.11,4.22-16.47,7.13-1.61.68-3.22,1.36-4.77,2.01-1.53.71-3.02,1.38-4.42,1.96-2.81,1.19-5.28,2.09-7.08,2.47-8.16,3.85-3.97,3.26-5.52,5.08-4.17,3.56-9.1,5.05-13.3,8.33.69.74-4.58,4.1-3.98,5.34l-7.16,4.75c-2.78,4.34,8.54-5.75,10.94-6.26,2.38-.53,1.14.44-.32,1.44-1.43,1.04-3.04,2.18-1.57,1.74,5.29-3.82,5.3-4.71,7.81-6.7,3.09-2.17,5.04-2.82,5.27-2.19-9.26,4.96-4.1,4.18-11.4,8.53l-.45-.16c.6,1.25-9.9,7.39-12.97,10.87-8.18,4.64,4.67-6.27,4.36-6.23,0,0-2.29,1.7-4.44,3.59-2.18,1.84-4.36,3.68-4.36,3.68,3.37-3.75-1.08-1.26,3.7-6.05-5.2,4.72-6.77,4.11-11.29,9.17,4.54-6.45-8.14,5.05-9.5,4.83,2.83-2.95,7.52-6.4,11.19-9,3.29-2.08,5.84-3.49,6.01-3.39.26-.38,1.8-1.64,3.76-3.12,2.29-1.7,5.18-3.44,6.83-4.34l3.49-4.62c-5.14,3.57-11.62,9.11-10.57,6.56l-6.25,5.88c2.73-3.62,4.05-5.37,5.38-6.92,1.39-1.48,2.8-2.76,5.79-5.5-14.7,8.14-22.14,19.52-32.94,27.75l1.41-1.6c-9.61,9.5-15.39,15.51-19.79,19.27-4.47,3.71-7.25,5.42-10.14,6.88,2.4-3.39,4.77-6.61,7.06-9.38Zm-53.36,111.23c1.05-2.13,2.16-6.21,4.1-9.37.45-.14-.47,3.6-.89,5.76,1.03-2.59,1.82-5.08,2.43-7.33.73-2.21,1.26-4.18,1.63-5.74-3.06,8.17-2.16,3.57-3.8,5.06,1.32-5.24,4.24-13.53,5.31-16.6,3.11-6.82,6.62-11.91,5.61-6.99,1.41-4.54,3.94-8.84,5.01-13.89-2.79,9.03-2.55-.94-5.96,10.65-1.55,1.28-.76-1.13.83-4.56,1.55-3.43,3.95-7.81,5.76-10.39-1.22,3,.55.85.63,1.76,3.68-8.51.56-5.26-2.89.49l4.12-10.12c-.18.34-.35.63-.53.95,1.59-3.39,3.42-6.59,5.08-9.82,1.9-.51,2.85-.28,1.04,2.17,0,0,.94-1.15,1.87-2.3.93-1.15,1.88-2.28,1.88-2.28l-4.14,7.89c2.8-2.64,5.03-8.47,7.62-12.27,1.72-1.95.34.69-1.65,4.48-1.92,3.85-4.21,9.01-4.86,11.82-1.5,4.29-6.35,12.16-7.16,12.41.84,1.99-6.08,15.2-7.15,21.06-1.37,3.39-2.33,5.61-3.07,7.25-.78,1.63-1.42,2.62-2.03,3.59-1.15,1.94-2.45,3.65-3.81,10.09l2.28-4.22c-1.4,5.61-2.4,9.6-3.44,13.74-.86,4.17-2.11,8.42-3.56,14.64-.78.63-.46-.8.07-2.75.61-1.93,1.42-4.39,1.42-5.88l-2.67,5.61c.59-2.72.74-8.31,1.93-7.81-.6-.25-.59-4.77-1.93,3.32l.45-6.22c-.23.3-.45.72-.67,1.23.38-1.78.66-3.65,1.15-5.44Zm-3.32,16.93c.38,1.25,1.33-.29-.3,6.95-.24-.61-.53-.17-.85.79.38-2.56.77-5.15,1.15-7.73Zm-.04,80.77c.75,2.45,2.24,14.17.85,11.72-.45-8.28-4.05-7.09-2.67-14.98-1.01-1.13-1.27.9-1.18,3.92-.33-.98-.54-1.57-.78-1.65-.19-3.05-.36-5.93-.53-8.62-.06-2.42-.07-4.57.37-3.94,1.57.55,2.39,10.69,3.94,13.56Zm-9.67-35.57c.17-3.24.23-6.47.64-9.82.33-3.32.66-6.66.99-10,.41-3.32.96-6.61,1.41-9.91l-.9,1.57c.77-4.2.32-7.73,1.62-9.91.1-.04.17,1.29.24,3.39.14,2.11.33,5,.53,8.11.23,6.19,1.13,13.16,1.38,16.41-.28,8.05-.58,16.57-.75,21.55l-.28-2.48c.2-19.02.64-24.49-.58-22.46-.53,1.02-1.38,3.95-2.23,8.07-.69,4.17-1.67,9.26-2.37,15.2-.07-3.41.21-6.43.32-9.72Z"/>
        <path class="cls-1" d="m99.32,78.26l-3.13,3.84c3.39-3.1,5.62-5.36,7.37-7.16,1.71-1.83,2.86-3.3,4.13-4.75-.17.47.47.12,1.74-.59,6.16-5.4,8.8-9.11,4.87-7.21l-1.88,2.03s-1.32.65-2.63,1.3c-1.33.64-2.58,1.39-2.58,1.39-.09,1.6-3.52,4.89-7.72,8.66-4.02,3.95-8.88,8.32-11.7,12.02,1.77-2.7,3.46-5.2,5.41-7.78,2-2.53,4.28-5.13,7.91-7.25l-1.46-.3c5.29-4.85,10.43-7.69,12.88-10.98,0,0-1.6,1.34-3.19,2.68-1.62,1.31-3.11,2.77-3.11,2.77l-.3-.58c-4.45,3.92-9.46,9.57-13.8,12.91-2.97,3.84-5.28,7.85-14.13,17l.09-.48c-1.97,4.03-6.3,8.19-10.22,12.43-3.92,4.22-7.91,8.12-9.35,11.13-.17,2.21,1.92-.6,4.76-4.09,2.84-3.49,6.15-7.91,7.87-9.27-2.69,4.71-7.12,8.49-3.28,5.67-6.87,10.4-6.07,4.77-10.9,13.99l3.83-4.43c-.93,2.18-2.62,4.74-4.32,7.3-1.69,2.56-3.19,5.26-4.04,7.47.93,1.36,4.08-6.62,9.71-13.39l-1.32,3.87s2.29-3.74,4.58-7.48c2.45-3.64,4.91-7.28,4.91-7.28,1.78-5.23-1.42-1.58,4.78-10.79,3.17-2.45,5.87-3.68,7.1-3.34,1.84-3.61,8.6-11.6,17.11-19.3Z"/>
        <path class="cls-1" d="m49.29,171.98c-.03-.09-.06-.18-.12-.22-.03.2.02.25.12.22Z"/>
        <path class="cls-1" d="m552.82,186.42c-.45.27-1.54-2.4-2.48-4.64-1.03-2.21-1.92-3.98-1.68-2.06,1.56,2.16,3.71,8.24,4.16,6.7Z"/>
        <path class="cls-1" d="m552,188.87l-2.77-6.38,1.42,4.72c.34.29.58,0,1.35,1.66Z"/>
        <path class="cls-1" d="m545.1,197.46c1.75,5.4,3.37,8.77,5.01,11.88,1.54,3.16,2.95,6.11,4.35,10.61-.2-2.35-1.21-8.26-2.94-13.39-1.7-5.14-3.55-9.65-4.52-9.47,2.01,3.5,3.22,5.77,5.17,11.73-1.65,2.98-3.93-9.5-7.07-11.35Z"/>
        <path class="cls-1" d="m542.1,192.88l.09.64s.71,1.41,1.42,2.82c.73,1.4,1.37,2.85,1.37,2.85l-.06-.64s-.69-1.43-1.4-2.84c-.71-1.42-1.42-2.82-1.42-2.82Z"/>
        <path class="cls-1" d="m471.48,63.26c1.42,1.18,3.32,2.93,5.7,4.27.03-1-3.8-3.02-5.7-4.27Z"/>
        <path class="cls-1" d="m506.39,485.84c3.23-3.65,7.44-8.61,11.48-13.68,3.95-5.16,7.91-10.29,10.58-14.37.34-.49.66-.96.97-1.41-7.23,10.43-15.09,20.78-28.55,35.42,0,0,2.21-2.39,5.52-5.96Z"/>
        <path class="cls-1" d="m532.5,451.89c.34-.5.54-.8.54-.8-.18.27-.36.53-.54.8Z"/>
        <path class="cls-1" d="m532.5,451.89c-1.02,1.5-2.04,3-3.07,4.48,1.41-2.05,2.47-3.6,3.07-4.48Z"/>
        <path class="cls-1" d="m319.91,7.92c6.86.26,11.85.45,16.87.64,4.98.46,10.06.75,16.96,2.08-4.41-1.46-8.24-2-11.6-2.52-3.37-.51-6.34-.67-9.23-.68-5.76-.13-11.06-.26-18.9-1.55l5.88,2.04Z"/>
        <path class="cls-1" d="m320.99,3.29c-2.81.17-5.62.29-4.64.91,9.52.37,4.59-1.13,13.03.04l-3.96-2.05c1.04.92-1.6.89-4.44,1.1Z"/>
        <polygon class="cls-1" points="375.36 38.53 378.4 39.26 379.27 39.04 375.36 38.53"/>
        <polygon class="cls-1" points="263.5 2.94 256.5 3.35 262 3.46 263.5 2.94"/>
        <polygon class="cls-1" points="378.88 42.58 381.77 42.84 373.58 40.45 378.88 42.58"/>
        <path class="cls-1" d="m325.41,21.98l5.28.2c-1.05-.04-8.12-1.56-5.28-.2Z"/>
        <polygon class="cls-1" points="214.24 12.93 220.65 10.52 219.96 10.57 213.53 12.98 214.24 12.93"/>
        <path class="cls-1" d="m285.03,24.59c-.06-.07-.2-.15-.55-.25.15.09.35.17.55.25Z"/>
        <path class="cls-1" d="m281.57,25.72c5.45-.28,4.47-.7,3.46-1.13.53.69-10.13.43-3.46,1.13Z"/>
        <path class="cls-1" d="m205.04,31.3c.98-.4,1.8-.74,2.48-1.02-.83.28-1.69.61-2.48,1.02Z"/>
        <path class="cls-1" d="m207.52,30.28c2.67-.92,5.47-1.41,7.25-2.2-3.55.43-4.67,1.14-7.25,2.2Z"/>
        <path class="cls-1" d="m177.61,42.45l2.36-.98c-2.14,1.59-1.05,1,.88-.37,2.45-1.15,2.17-1.41,2.36-1.77.44-.35.87-.72,1.35-1.1-.7.48-1.33.92-1.87,1.29-3.84,1.72-6.15,2.83-5.09,2.92Z"/>
        <path class="cls-1" d="m77.8,94.78c6.74-6.74,4.65-6.69,8.39-11.13-3.69,3.98-5.98,6.31-8.45,8.84-2.42,2.57-4.88,5.48-9.02,10.47,6.93-7.37,8.79-9.18,9.08-8.18Z"/>
        <path class="cls-1" d="m88.85,80.96c-1.15,1.08-2,1.89-2.67,2.69.83-.89,1.68-1.68,2.67-2.69Z"/>
        <path class="cls-1" d="m212.58,40.24s.75-.56,1.51-1.13c.76-.58,1.53-1.1,1.53-1.1,0,0-1.25.74-2.48,1.52-1.23.77-2.46,1.54-2.46,1.54l1.9-.84Z"/>
        <path class="cls-1" d="m59.06,114.43c1.2-1.44,3.03-3.83,4.17-4.8-.36-.97-5.38,6.25-4.17,4.8Z"/>
        <path class="cls-1" d="m96.81,96.99c.99-.39,5.16-4.81,7.11-6.36-2.61,2.39-5.96,3.15-7.11,6.36Z"/>
        <path class="cls-1" d="m45.92,140.35c1.02-1.55,3.07-3.62,3.02-2.2,1.08-2.48,1.72-6.4-3.02,2.2Z"/>
        <path class="cls-1" d="m87.95,106.22c.94-1.34,1.97-2.61,1.97-2.62,0,0-.32.37-.82.92-.46.58-1.08,1.34-1.71,2.11-1.24,1.53-2.48,3.07-2.48,3.07l1.11-.83s.96-1.32,1.92-2.65Z"/>
        <path class="cls-1" d="m109.92,102.07c4.36-5.62-9.86,5.91-1.7-3.11-11.91,10.33,1.8.11-6.36,8.29,4.87-4.71,8.26-5.94,8.05-5.18Z"/>
        <path class="cls-1" d="m101.86,107.24c-.64.63-1.37,1.36-2.28,2.26.8-.83,1.56-1.58,2.28-2.26Z"/>
        <path class="cls-1" d="m42.64,184.97c-.22.8-.41,1.57-.56,2.39.28-1.02.44-1.73.56-2.39Z"/>
        <path class="cls-1" d="m84.12,126.7c-3.77,6.04-13.64,20.75-11.62,20.72,3.22-4.71,7.04-10.4,8.08-13.14l-1.53,1.8s1.22-2.38,2.43-4.75c1.32-2.31,2.64-4.63,2.64-4.63Z"/>
        <path class="cls-1" d="m4.97,241.89l.27-5.07-1.29,6.17c.55-1.74,1.11,1.66,1.01-1.11Z"/>
        <path class="cls-1" d="m3.72,244.19l.24-1.2c-.09.26-.17.64-.24,1.2Z"/>
        <path class="cls-1" d="m54.02,159.85c-.89,1.02-5.11,8.71-4.16,8.55,1.7-3.07,2.92-5.59,4.16-8.55Z"/>
        <path class="cls-1" d="m3.52,273.82c-.09,1.18-.13,2.29-.12,3.06,0,.8-.01,1.33-.01,1.33l.17-.71c-.12.19.24-8.3.24-8.3,0,0-.14,2.31-.28,4.61Z"/>
        <path class="cls-1" d="m2.87,324.13l.11-1.48s-.39-1.68-.67-3.38c-.27-1.7-.55-3.4-.55-3.4l-.18,1.46s.24,1.71.58,3.41c.36,1.7.71,3.39.71,3.39Z"/>
        <path class="cls-1" d="m32.5,267.67c.44-4.85-.3-8.98-.8-7.7,0,0-.08.61-.19,1.53-.13.92-.25,2.14-.31,3.33-.17,2.4-.33,4.8-.33,4.8,1.46-2.36.07-2.63.99-8.22,0,0,.05,1.61.27,3.16.19,1.55.37,3.1.37,3.1Z"/>
        <path class="cls-1" d="m176.58,552.24c1.18.42,1.93.69,1.93.69-.8-.32-1.4-.53-1.93-.69Z"/>
        <path class="cls-1" d="m273.16,581.96c3.09.22,6.11.48,8.48.48,5.14.1,9.43.2,12.44.26,3.07-.08,4.82-.12,4.82-.12-1.38-.04-2.72-.07-4.04-.09l-.98-.04h-.24s-.56-.02-.56-.02h-.12s-.46-.06-.46-.06l-1.83-.18c-2.44-.25-4.91-.51-7.59-.71,4.05-.67,1.85-.79-1.06-.92-2.8-.06-6.85-.47-5.52-1.09,2.03-.08,4.25-.12,6.41-.06,2.17.07,4.28.26,5.86.48,1.19-.71-3.29-1.47-2.75-2.33-3.36-.35-5.86-.27-8.3-.27-2.42.01-4.48.2-6.54.39-2.06.2-4.12.4-6.54.46-2.39,0-5.07-.25-8.46-.81.66-.81,4.93-1.03-3.94-2.04l2.28.1c-7.18-.33-9.81-1.6-11.85-2.2-2.03-.71-3.43-1.04-8.09-.73l.49-1.19c-3.25-.26-7.95-1.1-12.72-2.05-4.73-1.1-9.48-2.47-12.93-3.34l.48-.12c-19.41-4.91-10.88-2.85-31.88-10.79,0,0,.63.18,1.57.45.93.29,2.19.63,3.47.91,2.53.6,5.07,1.21,5.07,1.21-6.96-3.34-9.13-2.67-14.14-5.11.39-.05-.05-.99,2.6-.18-.59-.21-1.27-.45-2.07-.74-2.39-.87-5.65-1.93-8.77-3.29-3.16-1.3-6.31-2.59-8.68-3.57-2.38-.97-3.9-1.75-3.9-1.75-6.12-2.41.69,1.48,1.32,2.46-2.49-.5-12.62-6.78-12.67-7.87,1.49.62,7.26,3.46,4.01,1.05,0,0-2.31-.69-4.53-1.56-2.25-.84-4.49-1.67-4.49-1.67-9.78-7.84,9.32,3.05,15.09,5.17-2.7-1.62-4.96-2.89-7.03-3.98-2.04-1.13-3.85-2.14-5.68-3.16-3.69-2-7.53-4-12.96-7.97,3.14,2.43,4.85,4.37,6.4,5.84-.22.74-2.85-.79-6.3-3.24-3.48-2.4-7.81-5.64-11.34-8.45,4.14,4.03,1.22,2.4-2.44.24-.62-.43-1.07-.69-1.41-.83-.43-.25-.83-.48-1.25-.73l.86.67c-.16.08-.09.38.36,1.08,6.18,4.48,10.26,8.78,14.29,11.64-1.28-2.4,2.09.07,6.74,3.12,4.64,3.06,10.33,7.08,13.25,8.21l6.29,3.35,2.32,1.32c.35.48-.47.41-4.22-1.23,3.09,1.45,13.19,6.59,12.57,5.49,0,0,1.44.73,3.6,1.83,2.18,1.05,5.14,2.34,8.08,3.68,2.95,1.32,5.87,2.69,8.15,3.52,2.25.89,3.76,1.48,3.76,1.48.71.38,1.42.79,1.91,1.16.89.19,1.07.13,1-.02,0,0,1.64.64,4.51,1.74,2.92.98,7.08,2.38,12.08,4.07,10.09,3.03,23.67,6.81,37.56,9.03,6.9,1.38,13.91,1.99,20.43,2.87,3.38.25,6.65.51,9.75.74Z"/>
        <path class="cls-1" d="m126.23,525.36c-1.13-.89-2.45-1.86-4.06-2.95,1.51,1.1,2.81,2.04,4.06,2.95Z"/>
        <path class="cls-1" d="m298.9,582.57c2.44.01,5-.03,7.89-.21l-7.89.21Z"/>
        <path class="cls-1" d="m104.61,511.89s-2.65-2.27-5.3-4.53c-1.34-1.11-2.62-2.3-3.57-3.2-.95-.9-1.59-1.49-1.59-1.49,3.01,3.78-3.22-1.79-4.16-2.02,0,0,3.11,2.95,6.22,5.91,3.24,2.82,6.47,5.63,6.47,5.63.26-.42,1.9.27,1.93-.3Z"/>
        <path class="cls-1" d="m102.68,512.18c-.2.32.38,1.26,3.17,3.96.64.15,2.27,1.03,4.05,2.06,0,0-1.88-1.41-3.66-2.95-1.78-1.54-3.56-3.07-3.56-3.07Z"/>
        <path class="cls-1" d="m121.3,494.95l2.13,1.78,3.54,2.3s-1.44-1-2.87-1.99c-1.44-.99-2.8-2.09-2.8-2.09Z"/>
        <path class="cls-1" d="m155.53,521.97c-2.54-2.26-8.08-5.33-10-6.27,6.19,3.88,3.3,2.55,10,6.27Z"/>
        <polygon class="cls-1" points="157.68 513.35 152.17 510.49 158.15 513.82 157.68 513.35"/>
        <path class="cls-1" d="m363.23,569.13c.86-.23,1.92-.53,3.54-.97-1.18.4-2.34.68-3.54.97Z"/>
        <path class="cls-1" d="m386.51,566.23c3.34-1.21,6.51-2.17,9.13-3.29,5.26-2.13,8.77-3.55,8.77-3.55,4.98-2.36,3.37-2.23,1.48-1.89-1.93.26-4.2.57-.71-1.51-11.04,4.69-27.85,9.3-30.14,11.29.2-.32.08-.59-1.78-.22l-6.67,3.39,6.87-1.46c-1.68.84-4.39,1.9-7.59,2.93-3.23.91-6.95,1.84-10.58,2.67-7.29,1.61-14.35,2.33-16.53,2.33,13.29-2.99,6.31-3.01,24.88-6.36-.94-.24-4.47-.23-.41-1.42-21.29,5.7-40.98,7.57-63.72,9.62,9.01.48,6.09.86,1.59,1.32-2.25.22-4.89.48-6.61.78-.21.04-.41.07-.6.11l-.26.07h-.06s-.03.01-.03.01h-.02s-.41,0-.41,0h0l-.11.03c-.28.06-.49.14-.6.22-.23.17-.09.37.57.61,0,0,.04,0,.1,0h.56c.05,0,.11-.01.18-.02.27-.02.65-.05,1.12-.09.93-.08,2.16-.18,3.39-.29,2.46-.21,4.93-.43,4.93-.43l-.83.51s3.01-.12,6.02-.24c3-.27,6-.53,6-.53-2.52-.65-4.36-.57-3.88-1.49,7.98-.43,9.27-.27,10.03.03.76.26,1,.86,6.92.64,0,0,4.46-.61,8.92-1.22,2.23-.27,4.43-.78,6.1-1.06,1.66-.31,2.77-.52,2.77-.52l-1.39.51c1.49-.28,2.13-.51,2.62-.74,0,0,14.96-2.69,29.42-7.28,3.66-1,7.23-2.28,10.58-3.45Z"/>
        <path class="cls-1" d="m497.52,493.32v.24c.21-.35.25-.48,0-.24Z"/>
        <path class="cls-1" d="m488.75,502.6c-.81,1.1-1.69,2.14-2.35,2.92-.66.78-1.09,1.31-1.09,1.31,0,0,3.19-2.74,6.15-5.72,3.02-2.92,6.03-5.85,6.03-5.85v-1.7c-.81,1.26-4.66,5.74-6.63,6.97l1.17-2.25s-1.65,2.16-3.3,4.33Z"/>
        <path class="cls-1" d="m484.8,505.27c-.83-.67-7.74,6.23-9.41,7.75l1.05,2.72c6.41-5.93,4.99-6.8,1.05-4.18,5.56-5.69,4.17-1.58,7.31-6.29Z"/>
        <polygon class="cls-1" points="422.14 549.75 424.04 548.11 418.62 550.69 422.14 549.75"/>
        <path class="cls-1" d="m427.29,545.31l-3.25,2.79,5.38-2.58c-.57-.2-1.13-.4-2.14-.22Z"/>
        <path class="cls-1" d="m447.02,535.93c-1.87,1.13-3.75,2.23-3.75,2.23,2.21-1.22,4.59-2.7,7.49-4.5,0,0-1.87,1.13-3.74,2.27Z"/>
        <path class="cls-1" d="m437.17,541.26l.27.06,5.84-3.15c-2.18,1.1-4.14,2.1-6.1,3.1Z"/>
        <path class="cls-1" d="m429.43,545.53c1.34.45,2.87.87,10.25-3.73l-2.24-.48s-1.99,1.08-3.98,2.15c-1.97,1.11-4.03,2.06-4.03,2.06Z"/>
        <polygon class="cls-1" points="195.74 534.63 201.71 536.39 201.15 536 195.19 534.25 195.74 534.63"/>
        <path class="cls-1" d="m233.37,546.85c-1.6-.25-2.9-.38-3.8-.31,1.54.17,2.72.26,3.8.31Z"/>
        <path class="cls-1" d="m233.37,546.85c2.14.32,4.8.98,7.81,1.61,3.02.58,6.38,1.21,9.79,1.86,3.41.72,6.97.97,10.32,1.34,3.37.34,6.53.47,9.2.18,5.96-1.13,2.52-3.58,2.72-5.87-.44-.35-4.19-.67-8.16-1.14-3.95-.45-7.9-.63-8.3.09,6.97,1.88-10.02.06,3.12,2.17,1.07,1.01-5.37,1.66-11.5-.05.65-.78,6.13.53,2.47-1.04-4.27.27-5.73-.69-4.53.87-7.11-.37-8.05.2-12.96-.01Z"/>
        <path class="cls-1" d="m246.11,540.81c-3.2-.69-4.21-.75-6.2-1.05.36.94,3.58.66,6.2,1.05Z"/>
        <path class="cls-1" d="m328.39,558.97s-2.36.4-4.72.81c-2.35.45-4.73.69-4.73.69,2.25-.09,3.07.19,4.02.5.63-.4,6.85-1.6,5.43-1.99Z"/>
        <path class="cls-1" d="m318.94,560.47c-1.05.05-2.34.19-4.17.49l4.17-.49Z"/>
        <path class="cls-1" d="m323.44,561.12c-.16-.05-.3-.09-.48-.15-.13.09-.09.15.48.15Z"/>
        <path class="cls-1" d="m469.6,520.94c-1.47,1.13-3.7,2.51-5.41,3.94.25.59,3.77-2.32,5.41-3.94Z"/>
        <path class="cls-1" d="m565.59,385.62c-.74,1.24-1.1,1.88-1.77,3.61l1.77-3.61Z"/>
        <path class="cls-1" d="m561.3,326.49c.05.38.12.67.22.79-.12-.14-.19-.42-.22-.79Z"/>
        <path class="cls-1" d="m562.39,308.4c-.17,2.44-.42,6.22-.66,9.76-.37,3.55-.62,6.86-.43,8.33-.19-2.6,1.66-10.36.95-13.23l.22.37-.08-5.24Z"/>
      </g>
    </g>
  </g>
</svg>